<svg xmlns="http://www.w3.org/2000/svg" version="1.1" viewBox="0 0 3000 3000" width="3000" height="3000">
<defs/><!--ITEM: Illustration component 1--><g transform="translate(2812.0 152.0) rotate(90.00000000000003 -1282.0 1211.0)  scale(-3.205 3.2037037037037037)"><svg width="800.0" height="756.0" viewBox="0.0 0.0 800.0 756.0"><clipPath id="a-i1"><path d="m0 0h800v756h-800z" fill="#000000"/></clipPath><g clip-path="url(#a-i1)"><path d="m681.823 151.722c-225.639-126.883-547.708-226.47-648.9569-76.155-114.378 169.801 104.6139 297.349 128.4619 472.758 26.174 192.568 245.997 283.514 410.023 129.708 205.697-192.9 335.488-399.76 110.472-526.311z" fill="#fece2f"/></g></svg></g><!--ITEM: Illustration component 2--><g transform="translate(698.0 398.0) rotate(0.0 1062.0 837.0)  scale(3.6557659208261617 3.6550218340611353)"><svg width="581.0" height="458.0" viewBox="0.0 0.0 581.0 458.0"><clipPath id="a-i2"><path d="m0 0h581v458h-581z" fill="#000000"/></clipPath><g clip-path="url(#a-i2)"><path d="m570.657 457h-560.314c-1.09358.006-2.17751-.205-3.18948-.619-1.01197-.415-1.93204-1.025-2.70732-1.797-.77529-.771-1.39051-1.688-1.81031-2.698-.4198-1.009-.6359-2.092-.63589-3.186v-438.3949c-.00067-1.09401.21494-2.17737.63445-3.18776s1.03462-1.92789 1.80998-2.69971c.77535-.77182 1.69564-1.38274 2.70794-1.79763 1.01229-.41489 2.09663-.62556 3.19063-.61989h560.314c1.094-.00567 2.178.205 3.191.61989 1.012.41489 1.932 1.02581 2.708 1.79763.775.77182 1.39 1.68932 1.81 2.69971.419 1.01039.635 2.09375.634 3.18776v438.4949c-.022 2.193-.912 4.288-2.476 5.825s-3.674 2.391-5.867 2.375z" fill="#fff"/><path d="m578.7 30.4485v-19.5c.003-1.09075-.21-2.17124-.626-3.17943s-1.028-1.92422-1.799-2.69548c-.771-.77125-1.687-1.38252-2.695-1.7987-1.009-.41618-2.089-.62907-3.18-.62643h-559.8998c-1.09069-.00264-2.17118.21025-3.17937.62643s-1.92423 1.02745-2.69548 1.7987c-.77125.77126-1.38252 1.68729-1.7987 2.69548s-.62907 2.08868-.62643 3.17943v19.5z" fill="#fece2f"/><g fill="#1a1a1a"><path d="m566.621 16.5005 4.94-4.939c.281-.2814.439-.6631.439-1.061 0-.398-.158-.77962-.439-1.06102-.281-.28139-.663-.43948-1.061-.43948s-.78.15809-1.061.43948l-4.939 4.94002-4.939-4.94002c-.281-.28139-.663-.43948-1.061-.43948s-.78.15809-1.061.43948c-.281.2814-.439.66302-.439 1.06102 0 .3979.158.7796.439 1.061l4.94 4.939-4.94 4.939c-.281.2814-.439.663-.439 1.061 0 .3979.158.7796.439 1.061s.663.4395 1.061.4395.78-.1581 1.061-.4395l4.939-4.94 4.939 4.94c.281.2814.663.4395 1.061.4395s.78-.1581 1.061-.4395.439-.6631.439-1.061c0-.398-.158-.7796-.439-1.061z"/><path d="m571.072.00012805h-561.144c-2.61603-.01331115-5.13051 1.01166195-6.99175 2.85002195-1.86124 1.83837-2.9172156 4.33998-2.93625 6.95598v438.38787c.0190344 2.616 1.07501 5.118 2.93625 6.956s4.37572 2.863 6.99175 2.85h561.144c2.602.027 5.108-.98 6.969-2.798s2.925-4.3 2.959-6.902v-438.49387c-.019-2.616-1.075-5.11761-2.936-6.95598-1.862-1.83836-4.376-2.8633331-6.992-2.85002195zm-561.144 3.00000195h561.144c1.821-.01413 3.573.69451 4.871 1.97044 1.299 1.27594 2.039 3.01496 2.057 4.83556v20.19397h-575v-20.19397c.01822-1.8206.75787-3.55962 2.05667-4.83556 1.29881-1.27593 3.0507-1.98457 4.87133-1.97044zm568.072 29.99997v55h-575v-55zm-6.928 421.9999h-561.144c-1.82063.014-3.57252-.694-4.87133-1.97-1.2988-1.276-2.03845-3.015-2.05667-4.836v-357.1939h575v357.2999c-.033 1.806-.781 3.526-2.08 4.782-1.298 1.256-3.042 1.945-4.848 1.918z"/><path d="m544.5 24h-6c-1.193-.0013-2.337-.4759-3.181-1.3195-.843-.8436-1.318-1.9874-1.319-3.1805v-6c.001-1.1931.476-2.3369 1.319-3.1805.844-.84365 1.988-1.31818 3.181-1.3195h6c1.193.00132 2.337.47585 3.181 1.3195.843.8436 1.318 1.9874 1.319 3.1805v6c-.001 1.1931-.476 2.3369-1.319 3.1805-.844.8436-1.988 1.3182-3.181 1.3195zm-6-12c-.398 0-.779.158-1.061.4393-.281.2813-.439.6629-.439 1.0607v6c0 .3978.158.7794.439 1.0607.282.2813.663.4393 1.061.4393h6c.398 0 .779-.158 1.061-.4393.281-.2813.439-.6629.439-1.0607v-6c0-.3978-.158-.7794-.439-1.0607-.282-.2813-.663-.4393-1.061-.4393z"/><path d="m524.5 24h-12c-.398 0-.779-.158-1.061-.4393-.281-.2813-.439-.6629-.439-1.0607s.158-.7794.439-1.0607c.282-.2813.663-.4393 1.061-.4393h12c.398 0 .779.158 1.061.4393.281.2813.439.6629.439 1.0607s-.158.7794-.439 1.0607c-.282.2813-.663.4393-1.061.4393z"/><path d="m512.5 76h-366c-1.458-.0019-2.856-.5819-3.887-1.613-1.031-1.031-1.611-2.4289-1.613-3.887v-20c.002-1.4581.582-2.856 1.613-3.887 1.031-1.0311 2.429-1.6111 3.887-1.613h366c1.458.0019 2.856.5819 3.887 1.613 1.031 1.031 1.611 2.4289 1.613 3.887v20c-.002 1.4581-.582 2.856-1.613 3.887-1.031 1.0311-2.429 1.6111-3.887 1.613zm-366-28c-.663 0-1.299.2634-1.768.7322-.469.4689-.732 1.1048-.732 1.7678v20c0 .663.263 1.2989.732 1.7678.469.4688 1.105.7322 1.768.7322h366c.663 0 1.299-.2634 1.768-.7322.469-.4689.732-1.1048.732-1.7678v-20c0-.663-.263-1.2989-.732-1.7678-.469-.4688-1.105-.7322-1.768-.7322z"/><path d="m57.5 74.0006c-.3067.0004-.6061-.0932-.8579-.2682-.2519-.175-.444-.423-.5506-.7105-.1065-.2876-.1224-.6009-.0454-.8978.0769-.2968.243-.5629.4759-.7625l12.673-10.861-12.672-10.861c-.3021-.2591-.4889-.6276-.5192-1.0244-.0304-.3969.0981-.7895.3572-1.0916s.6276-.4888 1.0244-.5192c.3969-.0304.7895.0981 1.0916.3572l14 12c.1643.1408.2962.3155.3867.5122.0904.1966.1372.4104.1372.6268s-.0468.4303-.1372.6269c-.0905.1966-.2224.3713-.3867.5121l-14 12c-.2721.2332-.6187.3612-.977.361z"/><path d="m33.4999 74.0006c-.358.0005-.7044-.1276-.976-.361l-14-12c-.1643-.1408-.2962-.3155-.3866-.5121-.0905-.1966-.1373-.4105-.1373-.6269s.0468-.4302.1373-.6268c.0904-.1967.2223-.3714.3866-.5122l14-12c.1496-.1283.323-.2259.5103-.2872s.3848-.0851.5813-.07c.1965.015.3881.0686.5639.1577.1757.0891.3322.2119.4605.3615s.2259.323.2872.5103.0851.3848.0701.5813c-.0151.1965-.0687.3881-.1577.5638-.0891.1758-.212.3323-.3616.4606l-12.673 10.861 12.672 10.861c.2328.1995.3989.4656.4759.7623.077.2968.0612.61-.0452.8975-.1065.2875-.2984.5355-.5501.7106s-.551.2688-.8576.2686z"/><path d="m118 59.0004c-.398 0-.779.158-1.061.4393-.281.2813-.439.6629-.439 1.0607.015 2.1458-.655 4.2403-1.914 5.9781-1.259 1.7379-3.04 3.0283-5.083 3.683-2.044.6548-4.243.6396-6.277-.0432s-3.7972-1.9976-5.0318-3.7526c-1.2347-1.755-1.8764-3.8586-1.8316-6.0039.0447-2.1454.7736-4.2203 2.0803-5.9223 1.3067-1.7021 3.1231-2.9422 5.1841-3.5396s4.259-.5209 6.273.2185l-2.879.959c-.377.126-.689.3967-.867.7527-.178.3559-.207.7679-.081 1.1453s.397.6893.753.8671.768.2069 1.145.0809l6-2c.204-.068.391-.179.548-.3255s.281-.3251.363-.5236c.083-.1986.121-.4125.114-.6273-.008-.2148-.062-.4254-.158-.6176l-3-6c-.178-.3559-.49-.6266-.867-.7524-.378-.1258-.79-.0966-1.146.0814s-.626.49-.752.8675-.097.7896.081 1.1455l.923 1.846c-2.619-.7483-5.408-.6544-7.971.2685-2.5626.9229-4.7706 2.6282-6.3116 4.8746-1.5409 2.2464-2.3367 4.9204-2.2749 7.6438s.978 5.3585 2.6193 7.5327c1.6412 2.1742 3.9242 3.7776 6.5262 4.5833 2.603.8057 5.392.7731 7.975-.0933s4.828-2.5226 6.418-4.7346c1.59-2.2121 2.444-4.8679 2.442-7.592 0-.3978-.158-.7794-.439-1.0607-.282-.2813-.663-.4393-1.061-.4393z"/><path d="m564.061 71.939-8.45-8.449c1.785-2.3241 2.62-5.2405 2.334-8.1573-.286-2.9167-1.671-5.6155-3.874-7.5485s-5.059-2.9556-7.988-2.8601-5.712 1.3018-7.785 3.3742c-2.072 2.0723-3.278 4.8555-3.374 7.7847-.095 2.9293.927 5.7851 2.86 7.988s4.632 3.5879 7.549 3.8739 5.833-.5484 8.157-2.3339l8.449 8.45c.281.2814.663.4395 1.061.4395s.78-.1581 1.061-.4395.439-.6631.439-1.061c0-.398-.158-.7796-.439-1.061zm-26.061-15.439c0-1.6811.498-3.3245 1.432-4.7224.934-1.3978 2.262-2.4872 3.815-3.1306 1.553-.6433 3.262-.8117 4.911-.4837s3.164 1.1375 4.352 2.3263c1.189 1.1887 1.999 2.7033 2.327 4.3521.328 1.6489.159 3.3579-.484 4.9111s-1.733 2.8807-3.131 3.8147-3.041 1.4325-4.722 1.4325c-2.254-.0027-4.414-.899-6.008-2.4925-1.593-1.5935-2.489-3.754-2.492-6.0075z"/></g></g></svg></g><!--ITEM: Illustration component 3--><g transform="translate(1836.0 926.0) rotate(0.0 -414.0 342.0)  scale(-1.6461232604373757 1.6442307692307692)"><svg width="503.0" height="416.0" viewBox="0.0 0.0 503.0 416.0"><path d="m436.2 2.5h-369.4c-17 0-33.4 6.8-45.4 18.8s-18.8 28.4-18.8 45.4v198.6c0 17 6.8 33.4 18.8 45.4s28.4 18.8 45.4 18.8h22.9c-14.1 31.8-44.9 73.2-79.5 83.4 64.9-10.7 138.5-34.6 163.1-83.4h263c17 0 33.4-6.8 45.4-18.8s18.8-28.4 18.8-45.4v-198.5c0-17-6.8-33.4-18.8-45.4-12.1-12.1-28.4-18.9-45.5-18.9z" fill="#fff"/><path d="m10.2 415.5c-1.1 0-2.2-.8-2.4-1.9-.3-1.3.5-2.6 1.7-3 31.8-9.4 61.3-46.6 76.3-78.5h-19c-17.8 0-34.6-6.9-47.2-19.6-12.7-12.6-19.6-29.3-19.6-47.2v-198.5c0-17.8 6.9-34.6 19.6-47.2s29.3-19.6 47.2-19.6h369.5c17.8 0 34.6 6.9 47.2 19.6 12.6 12.6 19.5 29.3 19.5 47.2v198.6c0 17.8-6.9 34.6-19.6 47.2s-29.4 19.6-47.2 19.6h-261.4c-11.7 22.2-34.2 41-67 55.8-26.6 12-59.3 21.3-97.3 27.6-.1-.1-.2-.1-.3-.1zm56.6-410.5c-16.5 0-32 6.4-43.7 18.1-11.7 11.6-18.1 27.2-18.1 43.7v198.6c0 16.5 6.4 32 18.1 43.7s27.2 18.1 43.7 18.1h22.9c.8 0 1.6.4 2.1 1.1s.5 1.6.2 2.4c-12.2 27.5-35.5 59.8-62.4 76.3 29.2-6 54.8-13.9 76.3-23.6 32.4-14.7 54.3-33.1 65.3-54.9.4-.8 1.3-1.4 2.2-1.4h263c16.5 0 32-6.4 43.7-18.1s18.1-27.2 18.1-43.7v-198.5c0-16.5-6.4-32-18.1-43.7-11.9-11.7-27.4-18.1-43.9-18.1z" fill="#1a1a1a"/></svg></g><!--ITEM: Illustration component 4--><g transform="translate(1522.0 818.0) rotate(0.0 -714.0 1008.0) translate(-0.0 0.0) scale(-3.8181818181818183 3.8181818181818183)"><svg width="374.0" height="528.0" viewBox="0.0 0.0 374.0 528.0"><clipPath id="a-i4"><path d="m0 0h373.93v527.77h-373.93z" fill="#000000"/></clipPath><g clip-path="url(#a-i4)"><path d="m213.84 62.561s11.96-7.56 13.16-17.88-6.93-10.11-6.13-18.22c.73-7.5-2.66-15.25-11.73-18.28003-13.14-4.4-17.36.82-25.83-2.18s-21.8-10.83-26 2.67c-2.71 8.72003 1.37 19.83003 13.13 23.95003 9.4 3.3 21.53 22.69 27.53 25 5.187 1.9606 10.487 3.6101 15.87 4.94z" fill="#1a1a1a"/><path d="m213.84 63.5592c-.076.0099-.154.0099-.23 0-5.428-1.347-10.771-3.0166-16-5-2.85-1.11-6.66-5.4-11.06-10.37-5.35-6-11.41-12.87-16.44-14.63-12.64-4.43-16.52-16.29-13.76-25.19997 1.14-3.67 3-6.15999 5.67-7.409995 5.18-2.460005 11.92.249995 17.87 2.650005 1.33.53 2.58 1 3.74 1.45 3.6 1.28 6.39.99999 9.61.62999 5.455-.8257 11.03-.29331 16.23 1.55001 10.22 3.39996 13.11 12.20996 12.41 19.30996-.33 3.39 1.06 5.12 2.66 7.12 2 2.44 4.18 5.2 3.47 11.13-1.28 10.69-13.15 18.29-13.65 18.61-.155.1004-.335.1558-.52.16zm-47.14-61.55996c-1.309-.02897-2.608.23764-3.8.78-2.13 1-3.64 3-4.62 6.19-2.48 7.99996 1.06 18.69996 12.51 22.71996 5.53 1.94 11.77 9 17.28 15.2 4.05 4.57 7.88 8.9 10.29 9.83 5.003 1.8805 10.107 3.4764 15.29 4.78 1.94-1.33 11.35-8.17 12.35-16.94.61-5.09-1.16-7.3-3-9.64-1.72-2.15-3.5-4.37-3.09-8.56.63-6.34-1.95-14.19-11-17.22996-4.931-1.73533-10.212-2.23324-15.38-1.45001-3.33.36-6.47.69001-10.5-.73999-1.2-.42-2.47-.94-3.82-1.48-4.15-1.65-8.66-3.46-12.51-3.46z" fill="#1a1a1a"/><path d="m238.9 108.11c-5.28-6.16-9.67-9.0002-18.36-12.1402l-7.85-44.79c9.08.59 9.46-16.12-3-13.12-2.76.61-2.5 7-2.5 7-.15 6.07-4.81 5.12-6.26-3.61-2.27-13.69-21.64-4.07-29.7-9.11-1.82 18.4-1 30.73 1.74 37.77 3.86 9.93 14.95 11.64 23.18 6.72-.14 5.61-.12 16.78-.09 23-4.73 4.8302-12.08 13.5302-12.08 13.5302 15.81 3.72 34.73.64 54.92-5.25z" fill="#fece2f"/><path d="m174.81 33.4009s-4.08 25.53 2.33 37.19c5.6 10.17 16.56 7.11 16.56 7.11s-10.49 7.46-19.7-5.48c-6.42-11.19-2.45-40.34-2.45-40.34z" fill="#fff"/><path d="m189.29 48.6297c2.634 0 4.77-1.1641 4.77-2.6 0-1.436-2.136-2.6-4.77-2.6s-4.77 1.164-4.77 2.6c0 1.4359 2.136 2.6 4.77 2.6z" fill="#fff"/><path d="m189.29 49.6295c-3.29 0-5.77-1.55-5.77-3.6s2.48-3.59 5.77-3.59 5.77 1.56 5.77 3.56-2.48 3.63-5.77 3.63zm0-5.19c-2.26 0-3.77 1-3.77 1.59s1.51 1.6 3.77 1.6 3.77-1 3.77-1.6-1.5-1.59-3.77-1.59z" fill="#1a1a1a"/><path d="m186.69 48.2408c.95 0 1.72-.7701 1.72-1.72s-.77-1.72-1.72-1.72-1.72.7701-1.72 1.72.77 1.72 1.72 1.72z" fill="#1a1a1a"/><path d="m174.78 48.6297c2.474 0 4.48-1.1641 4.48-2.6 0-1.436-2.006-2.6-4.48-2.6s-4.48 1.164-4.48 2.6c0 1.4359 2.006 2.6 4.48 2.6z" fill="#fff"/><path d="m174.78 49.6295c-3.07 0-5.48-1.58-5.48-3.6s2.41-3.59 5.48-3.59 5.48 1.56 5.48 3.56-2.41 3.63-5.48 3.63zm0-5.19c-2.12 0-3.48.94-3.48 1.59s1.36 1.6 3.48 1.6 3.48-1 3.48-1.6-1.36-1.59-3.48-1.59z" fill="#1a1a1a"/><path d="m172.59 48.2408c.95 0 1.72-.7701 1.72-1.72s-.77-1.72-1.72-1.72-1.72.7701-1.72 1.72.77 1.72 1.72 1.72z" fill="#1a1a1a"/><path d="m181.39 60.7293h-.13c-.53-.06-3.18-.48-3.94-2.06-.163-.352-.23-.7406-.195-1.1267.035-.3862.171-.7563.395-1.0733.911-1.7008 1.664-3.4816 2.25-5.32.04-.1256.104-.2421.189-.3428s.189-.1836.306-.244.245-.0971.376-.1079c.131-.0109.263.0043.389.0447.125.0398.242.104.343.1889.1.085.183.189.244.306.06.1171.097.245.108.3763s-.005.2634-.045.3888c-.632 1.9901-1.453 3.9155-2.45 5.75-.07.11-.13.24-.1.3.678.5493 1.509.8774 2.38.94.265.016.513.1366.689.3354.177.1988.267.4594.251.7246-.016.2653-.137.5133-.335.6896-.199.1763-.46.2664-.725.2504z" fill="#1a1a1a"/><path d="m183.27 69.0009c-1.533-.0002-3.027-.4831-4.27-1.38-.215-.1565-.359-.3919-.4-.6544-.041-.2626.024-.5308.18-.7456s.392-.3587.654-.3999c.263-.0413.531.0234.746.1799 3.29 2.27 6.66-.06 6.8-.16.106-.0833.228-.1443.358-.1794s.266-.0436.399-.0248c.134.0187.262.0642.377.1338.116.0695.216.1617.295.271.079.1092.135.2333.165.3647.029.1315.032.2676.008.4002-.024.1325-.075.2589-.149.3714-.074.1124-.171.2087-.283.2831-1.443.9747-3.139 1.5097-4.88 1.54z" fill="#1a1a1a"/><path d="m195.91 77.0007c3.028-1.6624 5.718-3.8773 7.93-6.53-1.52 5.13-4.78 10.72-7.81 12 .055-1.8242.015-3.65-.12-5.47z" fill="#1a1a1a"/><path d="m196 83.4805c-.205-.0034-.404-.0697-.57-.19-.138-.0956-.25-.2246-.325-.3749-.076-.1503-.112-.3171-.105-.4851.11-2.25-.11-5.33-.11-5.36-.022-.2018.017-.4055.114-.5841.096-.1787.245-.3237.426-.4159 2.893-1.6112 5.468-3.7359 7.6-6.27.145-.1816.348-.3072.575-.3551.228-.048.464-.0153.67.0923s.368.2836.458.4976.103.4527.037.6752c-1.53 5.17-4.9 11.17-8.38 12.65-.122.0642-.254.1049-.39.12zm.92-5.91c0 .68.1 1.83.11 3 1.739-1.727 3.142-3.7613 4.14-6-1.304 1.1147-2.699 2.1182-4.17 3z" fill="#1a1a1a"/><path d="m198.85 116c-5.083.044-10.153-.503-15.11-1.63-.165-.038-.318-.118-.444-.232-.126-.113-.221-.257-.276-.418-.062-.167-.078-.348-.046-.524.031-.176.109-.34.226-.476.08-.09 7.14-8.44 11.84-13.2997 0-5.67 0-15.1.06-20.91-4.275 2.1487-9.22 2.54-13.78 1.09-2.14-.7208-4.089-1.9152-5.703-3.4943s-2.85-3.5022-3.617-5.6257c-2.95-7.6-3.56-20.46-1.81-38.23.016-.1691.075-.3313.171-.4713.097-.1399.227-.2531.379-.3287.156-.0803.331-.118.507-.1092.175.0088.346.0637.493.1592 2.84 1.78 7.58 1.54 12.16 1.32 7.72-.38 16.45-.81 18 8.48.79 4.8 2.53 6.74 3.27 6.65.39 0 .95-1 1-2.9 0-.68-.19-7.2 3.28-8 5.41-1.3 8.1 1 9.23 2.41.933 1.2932 1.484 2.8219 1.592 4.4127s-.232 3.18-.982 4.5873c-.513 1.0267-1.281 1.9049-2.229 2.5509-.949.6459-2.048 1.0381-3.191 1.1391l7.54 43.06c8.55 3.14 13 6.1597 18.24 12.2397.108.126.183.278.218.44s.029.331-.018.49c-.047.162-.134.309-.253.427-.119.119-.266.206-.427.253-15.93 4.64-29.11 6.94-40.32 6.94zm-13-3.22c13.18 2.66 29.57 1 51.3-5.18-4.68-5.17-8.87-7.7797-16.91-10.6697-.167-.0594-.315-.1619-.429-.2972s-.19-.2984-.221-.4728l-7.84-44.79c-.026-.1491-.018-.3021.024-.4476.041-.1455.115-.2797.216-.3924.101-.1128.227-.2011.367-.2583s.292-.0817.443-.0717c.972.0969 1.95-.1048 2.804-.5783s1.544-1.1962 1.976-2.0717c.559-1.0675.814-2.2677.738-3.4701s-.48-2.3611-1.168-3.3499c-1.44-1.85-4-2.45-7.2-1.68-1.33.3-1.82 3.76-1.73 6-.11 4.38-2.22 4.87-2.86 4.91-2.39.17-4.52-3.1-5.39-8.32-1.25-7.53-8.38-7.18-15.92-6.8-4.26.21-8.65.42-11.94-.92-1.54 16.7-.93 28.76 1.83 35.86.658 1.8541 1.725 3.5363 3.122 4.9213s3.088 2.4373 4.948 3.0787c2.264.6929 4.65.8925 6.998.5855 2.348-.3071 4.602-1.1137 6.612-2.3655.152-.0878.325-.134.5-.134.176 0 .348.0462.5.134.156.0897.284.2197.372.3764.088.1566.132.334.128.5136-.14 5.58-.12 16.8-.09 23-.001.2627-.105.5137-.29.6997-3.55 3.61-8.74 9.58-10.93 12.17z" fill="#1a1a1a"/><path d="m257.15 371.051h-15.2v98.75h15.2z" fill="#fece2f"/><path d="m257.16 470.801h-15.16c-.265 0-.52-.106-.707-.293-.188-.188-.293-.442-.293-.707v-98.75c0-.265.105-.52.293-.707.187-.188.442-.293.707-.293h15.21c.265 0 .52.105.707.293.188.187.293.442.293.707v98.75c0 .135-.027.27-.081.394-.053.125-.131.238-.229.331-.099.094-.215.166-.342.214-.127.047-.263.068-.398.061zm-14.21-2h13.21v-96.75h-13.16z" fill="#1a1a1a"/><path d="m258.36 464.91h-17.65l-94.62 35.49c-15.63 4 43.31 16.51 102.6 17.18 60.93.7 122.23-10.6 103.37-17.18z" fill="#fece2f"/><path d="m237.83 465.891s-56.89 26.11-54.83 33.34 8.16 13.29 23.31 16.09c-28.68-1.87-63.88-9.56-62.95-14 6.8-2.32 94.47-35.43 94.47-35.43z" fill="#fff"/><path d="m254 518.609c-1.793 0-3.573 0-5.34 0-24.163-.318-48.274-2.35-72.15-6.079-12.47-2-33.47-6.001-34-10.281-.22-1.85 2.32-2.54 3.24-2.77l94.61-35.48c.112-.04.231-.061.35-.06h17.65c.119-.001.238.02.35.06l93.7 35.5c1.1.38 4.51 1.57 4.09 4-.89 5.07-22.26 8.841-34.93 10.641-22.397 3.012-44.972 4.505-67.57 4.469zm-109.41-16.54c2.34 3.93 49.56 13.931 104.11 14.511 56.46.65 105-8.521 105.83-13.471 0-.2-.4-.92-2.8-1.76l-93.55-35.44h-17.28l-94.46 35.43h-.1c-.627.121-1.223.369-1.75.73z" fill="#1a1a1a"/><path d="m241.67 377.761s10.55 1.75 15.07 17.83c.3-8 .9-18.53.9-18.53z" fill="#1a1a1a"/><path d="m256.13 465.421 69.24 46.86 22.39-5.01-88.37-42.31z" fill="#1a1a1a"/><path d="m254.47 465.311 59.71 48.14-16.78 1.98-45.73-50.12z" fill="#1a1a1a"/><path d="m122.1 333.59s63.77 56.34 174.59 40.25c96.66-14 95.23-145.47 30.34-182.65-82.65-47.37-294.0899 73.68-204.93 142.4z" fill="#fece2f"/><path d="m371.84 264.221s7.46 43.36-17.49 76.47-66.44 34.31-81.35 35.44c27.4-4 34.49-17.26 40.32-25.18s11.89-8.4 17.49-6.3 8.39-6.53 13.29-25.88 11.42-18.65 16.78-18.88 12.36-5.83 10.96-35.67z" fill="#1a1a1a"/><path d="m257.67 377.7c-38.76 0-69.47-8.62-90.21-17-29-11.77-45.24-25.65-46-26.32-24.8999-19.2-28.5999-44.78-10.43-72 18.17-27.22 56.63-53.83 100.46-69.59 47-16.89 89.28-17.77 116-2.44 16.98 9.65 30.71 26.65 38.71 47.65 7.708 20.412 9.69 42.543 5.73 64-3.53 18.55-11.62 34.88-23.41 47.24-13.28 13.91-30.66 22.51-51.68 25.56-12.97 1.909-26.06 2.878-39.17 2.9zm22.47-196.29c-20.29 0-43.47 4.42-68 13.23-43.45 15.62-81.57 42-99.47 68.82-12.36 18.54-20.6699 45.66 10.04 69.34h.05c.16.14 16.21 14.15 45.54 26 27 10.95 71.26 22.26 128.25 14 39.13-5.69 65.89-31.64 73.42-71.21 8.42-44.25-9.85-90.34-43.44-109.58-12.39-7.01-28.23-10.6-46.39-10.6z" fill="#1a1a1a"/><path d="m274.73 375.891s-35.22 1.29-71.94-19.35c-29.73-16.7-66.46-13.28-48.61-3.15 25.88 14.69 80.45 28.1 120.55 22.5z" fill="#1a1a1a"/><path d="m51.6101 424.74-6.3 60.15 17.9 2.28 13.19-54.05z" fill="#fece2f"/><path d="m63.2102 488.169h-.12l-17.9-2.28c-.2584-.032-.4939-.164-.6563-.368-.1625-.204-.2392-.463-.2137-.722l6.3-60.16c.0163-.148.0655-.291.1441-.418s.1846-.234.3102-.315c.1256-.08.2677-.132.4158-.15.148-.019.2984-.004.4399.043l24.79 8.38c.2359.081.4333.246.5536.464.1202.219.1546.474.0964.716l-13.19 54.05c-.0536.217-.1782.41-.354.547-.1758.138-.3926.213-.616.213zm-16.8-4.17 16 2 12.76-52.29-22.74-7.68z" fill="#1a1a1a"/><path d="m278.81 287.409s-4.19 14-12.59 22.74-3.49 10.14 3.85 5.94 14.69-13.29 17.84-24.48-5.91-11.54-9.1-4.2z" fill="#fff"/><path d="m253.81 321.511c1.84-1.27 6.64.529 3.32 3.849s-6.47 4.001-10.67 4.891-4.37-1.57-1.92-3 6.99-4.16 9.27-5.74z" fill="#fff"/><path d="m227.64 143.68c3.33 38.7-7.49 71.2-17.37 90.34-15.69 30.42-91.84 32.52-105 32.08-13.1598-.44-36.2598 9.77-39.7598 13s-7.26 1.53-3.84-4.67c7.46-13.52 26.11-19.11 39.6298-21 15.47-2.13 58-9.83 61.9-25.65s9.44-36.13 11.31-79.5" fill="#fece2f"/><path d="m62.1298 281.799c-.6327.014-1.2507-.191-1.75-.58-.76-.59-2.24-2.48.38-7.23 8.58-15.55 31.09-20.21 40.3702-21.49 9.49-1.31 57-8.66 61.07-24.9l.5-2c3.8-15.13 9-35.84 10.78-77.32.01-.265.126-.515.321-.695s.454-.275.719-.265c.265.011.515.126.695.321.18.196.275.454.265.719-1.79 41.68-7 62.52-10.84 77.73l-.5 2c-4.26 17-49.09 24.51-62.73 26.39-9.0002 1.24-30.7502 5.72-38.9002 20.48-1.53 2.76-1.38 4.32-.91 4.69s1.7.16 3.2-1.24c3.6-3.37 26.83-13.77 40.4802-13.3 18.23.6 89.36-3 104.1-31.54 13.889-27.784 19.861-58.856 17.26-89.81-.022-.264.061-.525.232-.728.17-.202.414-.329.678-.352.264-.022.525.061.728.232.202.171.329.415.352.678 2.631 31.326-3.413 62.772-17.47 90.89-6.79 13.17-25 22.64-54.16 28.14-17.08 3.147-34.423 4.647-51.79 4.48-12.9202-.43-35.6902 9.64-39.0002 12.77-1.0744 1.126-2.528 1.814-4.08 1.93z" fill="#1a1a1a"/><path d="m190.1 185.18s-19.35-.24-26.35-2.1c4-13.52 11.31-48.35 11.31-48.35" fill="#fff"/><path d="m190.1 186.181c-.8 0-19.56-.26-26.59-2.13-.13-.034-.252-.094-.359-.177-.106-.082-.195-.186-.261-.303-.065-.116-.107-.244-.122-.376-.016-.132-.005-.266.032-.394 3.91-13.33 11.22-47.93 11.29-48.28.056-.265.215-.498.442-.646.226-.148.503-.2.768-.144.265.055.498.214.646.441s.2.504.144.769c-.07.34-7 33.36-11 47.41 7.48 1.6 24.92 1.83 25.1 1.83.265 0 .52.105.707.293.188.187.293.442.293.707s-.105.519-.293.707c-.187.187-.442.293-.707.293z" fill="#1a1a1a"/><path d="m238.68 267.409s-127-9.73-157.4601 1.58c-21.67 8.06-24.48 25.53-24.48 25.53l-19.82 139.19 38.47 7.46 26.6101-119.71 124.8 1.76z" fill="#1a1a1a"/><path d="m143.03 430.27 8.25 64.29-17.62 5.13-18.75-68.39z" fill="#fece2f"/><path d="m133.66 500.701c-.171-.003-.34-.047-.49-.13-.115-.066-.215-.153-.296-.258s-.14-.224-.174-.352l-18.76-68.39c-.04-.146-.047-.3-.019-.449s.089-.289.179-.411c.089-.122.205-.223.338-.294s.281-.11.432-.116l28.12-1c.244-.002.481.085.665.245.184.161.303.383.335.625l8.25 64.3c.029.235-.027.472-.157.67s-.326.343-.553.41l-17.62 5.14c-.083.011-.166.015-.25.01zm-17.45-68.44 18.15 66.19 15.82-4.61-8-62.54z" fill="#1a1a1a"/><path d="m49.6101 346.4-12.24 86.38 25.88 4.9s0-2.1-7-16.44-6.3-16.44-3.5-23.08 2.1-9.79-.7-16.79-2.44-34.97-2.44-34.97z" fill="#fece2f"/><path d="m75.39 442.17h-.19l-38.47-7.47c-.2534-.049-.4781-.193-.6272-.404s-.211-.471-.1728-.726l19.82-139.19c.12-.75 3.16-18.16 25.12-26.32 30.29-11.26 152.69-2.05 157.89-1.65.141.012.279.054.403.123s.232.163.317.277c.086.114.147.246.178.386.031.139.032.284.002.424l-11.87 55.81c-.049.228-.175.431-.358.575-.182.144-.409.22-.642.215l-124-1.75-26.42 118.92c-.0501.222-.1746.421-.3528.563-.1782.141-.3995.218-.6272.217zm-37.34-9.26 36.58 7.09 26.37-118.76c.051-.225.178-.426.36-.569.183-.142.409-.216.64-.211l124 1.75 11.45-53.89c-12.74-.93-127.54-8.93-155.89 1.61-20.83 7.75-23.82 24.59-23.84 24.75z" fill="#1a1a1a"/><path d="m249.66 331.57s-83.12-8.37-113.9 7c7.91 80.43 10.41 105.43 10.41 105.43l-42.57-3.25s-16.7199-73-23.3099-108.65-6.3-52 27.9999-56.65c34.3-4.65 169.71-.57 169.71-.57s4.62 58.67-28.34 56.69z" fill="#1a1a1a"/><path d="m146.17 445h-.07l-42.57-3.25c-.214-.016-.417-.101-.579-.241-.162-.141-.275-.33-.321-.539-.17-.73-16.8102-73.48-23.3302-108.69-4.25-23-5.21-36.34 1.41-45.48 4.74-6.54 13.45-10.46 27.4202-12.35 34-4.57 168.55-.57 169.91-.53.252-.001.495.093.68.264s.3.405.32.656c.11 1.48 2.68 36.4-11.94 51.29-2.244 2.313-4.976 4.095-7.997 5.216-3.021 1.122-6.254 1.553-9.463 1.264h-.05c-.82-.08-82.09-8.05-112.74 6.62 7.77 78.95 10.32 104.43 10.35 104.68.015.146-.003.293-.051.431-.049.138-.127.264-.229.369-.098.098-.216.174-.345.224s-.267.072-.405.066zm-41.76-5.19 40.65 3.1c-.58-5.83-3.39-34-10.3-104.18-.022-.203.02-.407.118-.586s.249-.323.432-.414c30.62-15.32 110.74-7.5 114.43-7.13 2.921.268 5.865-.121 8.616-1.138 2.751-1.018 5.24-2.638 7.284-4.742 12.73-13 11.73-43.24 11.43-48.84-11.94-.34-136.34-3.81-168.67.55-13.3902 1.8-21.6702 5.46-26.0702 11.53-6.16 8.51-5.12 22-1.06 43.95 6.16 33.26 21.3902 100.18 23.1402 107.86z" fill="#1a1a1a"/><path d="m174.52 140.189c.542-10.709 4.506-20.962 11.31-29.25.182.357.446.665.77.9 4 2.86 22.65 2.38 33.15-2.73 6.1-3 7.52-6.29 8.49-9.7399 10.55 5.4399 23.87 19.3999 28.77 32.6499 23.73 64.16 14.19 172.52 14.19 172.52-14.5-26.37-69-39.11-87.45-40.87-4.937-19.661-6.425-40.03-4.4-60.2 2.21-20.47-5.71-43.07-4.83-63.28z" fill="#fff"/><path d="m271.22 208.73s1.86 20.51-4.9 31-7.46 16.32-2.79 17.26 4.19 5.59-.7 10.72-5.6 15.62-1.17 16.32 11.42-11 11.42-11 1.17-55.91-1.86-64.3z" fill="#1a1a1a"/><path d="m271.2 305.541c-.18 0-.356-.048-.511-.139-.155-.092-.282-.223-.369-.381-14.21-25.84-68.5-38.62-86.67-40.35-.199-.02-.387-.1-.54-.228-.154-.129-.265-.3-.32-.492-4.941-19.793-6.44-40.289-4.43-60.59.84-7.76.63-15.82.41-24.36-.06-2.35-.12-4.72-.16-7.09-.06-3.42.06-10.29.35-21 0-.265.106-.52.293-.707.188-.188.442-.293.707-.293s.52.105.707.293c.188.187.293.442.293.707-.29 10.71-.41 17.56-.35 20.94 0 2.37.1 4.73.16 7.08.22 8.61.43 16.73-.42 24.62-1.948 19.821-.535 39.829 4.18 59.18 14.41 1.55 68.4 12.42 85.91 38.62 1.31-18.12 6.79-111.81-14.36-169-4.84-13.08-17.42-26-27.25-31.55-1.4 3.8-4.35 6.76-9 9-10.49 5.1-26.55 6.48-33.69 2.9l-.32-.2c-4.51 5.717-7.65 12.391-9.18 19.51-.26 1.25-.51 2.34-.78 3.55-.44 1.92-.93 4.09-1.66 7.64-.024.132-.074.259-.148.372-.074.112-.169.209-.281.284-.112.074-.238.126-.371.15-.132.025-.268.023-.4-.006-.129-.027-.251-.08-.359-.155-.109-.074-.202-.17-.273-.28-.072-.111-.121-.234-.144-.364-.024-.129-.022-.262.006-.391.74-3.56 1.23-5.75 1.67-7.67.27-1.2.51-2.29.78-3.52 1.681-7.842 5.236-15.161 10.36-21.33.106-.128.241-.227.394-.289.154-.063.32-.086.485-.068.164.018.322.076.458.17.137.094.248.22.323.367.073.177.186.334.33.46 6.68 3.35 21.89 2 31.91-2.91 6.08-3 7.66-6.51 8.32-8.9301.039-.1431.11-.2757.207-.3881s.217-.2019.353-.2619c.135-.0639.281-.0971.43-.0971s.296.0332.43.0971c10.32 5.3601 24.09 19.2301 29.32 33.2301 23.54 63.64 14.34 171.87 14.24 173-.019.213-.106.415-.248.575s-.332.271-.542.315z" fill="#1a1a1a"/><path d="m169.82 329.61c18.67 2.62 75.48 1.5 91.58-43.07s57-39 73.06-53.87c0 0 28.4 52.86-24.75 88.3s-139.89 8.64-139.89 8.64z" fill="#fece2f"/><path d="m183.35 331.331c-4.494.023-8.984-.258-13.44-.84-8.458-1.257-16.723-3.575-24.6-6.9-.122-.051-.232-.125-.325-.218s-.167-.203-.217-.325-.076-.252-.076-.384c.001-.132.027-.262.078-.383.103-.244.3-.437.545-.536.246-.1.521-.098.765.006 7.722 3.254 15.822 5.525 24.11 6.76 19.85 2.77 74.77.6 90.27-42.31 10.93-30.27 31.63-36.92 48.26-42.26 8.46-2.71 15.77-5.06 20.94-9.84 4.39-4 6.59-8.5 6.56-13.23-.06-8.62-7.56-15.46-7.64-15.53-.198-.178-.317-.427-.331-.692-.014-.266.078-.526.256-.723.178-.198.426-.317.692-.331.265-.014.525.078.723.256.33.3 8.23 7.48 8.3 17 0 5.32-2.38 10.27-7.2 14.72-5.5 5.08-13.36 7.6-21.68 10.28-17.07 5.48-36.4 11.69-47 41-7 19.28-22.65 33-45.36 39.79-10.934 3.138-22.255 4.716-33.63 4.69z" fill="#1a1a1a"/><path d="m260.51 157c3.34 38.7-4.92 69.1-14.8 88.25-15.69 30.41-104 34.15-117.13 33.71s-23.06 3.87-27.8 5.16c-6.2099 1.69-4.6399-3.61-4.6399-3.61-2.54 1.22-8.33 1.45-6.88-2.16-2.3 1.1-5.1 1.67-6.47-.06-.87-1.11.57-3.27 6.94-6.35 8.6667-4.193 19.2729-6.543 31.8199-7.05 15.6-.65 79.34-14.37 83.29-30.19s4.61-33.41 2.28-75.84" fill="#fece2f"/><path d="m110.29 266.31s14.52.82 21.33 2.28c7.35 1.57 50.54-10.5 62.78-23.43-8.22 3.84-47.57 17.48-60.86 18.53s-23.25 2.62-23.25 2.62z" fill="#fff"/><path d="m98.6401 285.42c-.4703.044-.9447-.012-1.3915-.165-.4469-.153-.856-.4-1.2003-.723-.3443-.324-.6158-.717-.7965-1.153-.1807-.437-.2665-.907-.2517-1.379-2.12.54-4.81.53-6.12-.7-.3953-.362-.662-.843-.76-1.37-2.69.89-4.85.55-6.07-1-.1983-.252-.3366-.546-.4041-.86-.0676-.313-.0628-.638.0141-.95.41-1.78 2.92-3.77 7.68-6.06 8.7-4.21 19.5399-6.61 32.1999-7.15 15.85-.66 78.6-14.36 82.37-29.43 4-16.09 4.55-33.74 2.25-75.54-.007-.131.012-.263.055-.387.044-.124.111-.238.199-.336s.194-.178.313-.235c.118-.057.247-.09.378-.097s.263.012.387.055c.124.044.238.111.336.199s.178.194.235.313c.057.118.09.247.097.378 2.31 42 1.77 59.82-2.31 76.13-4.16 16.64-69.27 30.32-84.22 31-12.39.53-22.9999 2.86-31.4299 6.95-5.89 2.85-6.52 4.43-6.59 4.71v.12c1 1.22 3.35.69 5.25-.22.1822-.088.3869-.118.5869-.088.2.031.3859.122.5333.26.1473.139.2491.319.292.517.0428.198.0246.404-.0522.591-.32.78-.08 1 0 1.09.81.75 3.74.64 5.51-.21.1739-.082.368-.113.5589-.088s.3705.104.5173.229.2545.289.3102.473c.0556.185.0569.381.0036.566-.12.41-.33 1.7.24 2.27s1.61.52 3.1799.1c.87-.24 1.93-.59 3.16-1 5.26-1.71 14.06-4.57 24.93-4.21 12.8.42 100.93-3.54 116.21-33.17 7.12-13.81 18.5-43.55 14.69-87.71-.011-.131.004-.264.045-.389.04-.126.105-.242.19-.342.086-.101.19-.183.308-.243.117-.06.246-.096.377-.106.264-.022.526.061.728.232.203.171.329.414.352.678 3.85 44.66-7.69 74.8-14.91 88.79-15.8 30.62-102.74 34.77-118.06 34.26-10.52-.34-18.78 2.33-24.24 4.11-1.25.41-2.34.77-3.26 1-.79.202-1.604.3-2.4199.29z" fill="#1a1a1a"/><path d="m262.14 147.869s3.27 12.59 7.23 37.31c-15.62 6.06-49.19 8.62-67.38 2.8.47-11 .23-37.31.23-37.31" fill="#fff"/><path d="m228.45 192.25c-9.95 0-19.54-1-26.77-3.32-.209-.068-.39-.202-.514-.383-.125-.181-.187-.398-.176-.617.46-10.8.24-37 .23-37.25 0-.265.105-.519.293-.707.187-.188.442-.293.707-.293s.52.105.707.293c.188.188.293.442.293.707 0 .26.22 25.31-.2 36.59 17.92 5.41 49.7 3 65.23-2.72-3.85-23.85-7-36.28-7.07-36.41-.044-.248.008-.503.144-.714.136-.212.347-.364.59-.427.244-.063.502-.032.723.087.222.118.391.316.473.554 0 .13 3.32 12.92 7.25 37.4.036.226-.007.458-.122.657-.115.198-.294.351-.508.433-9.57 3.69-25.85 6.12-41.28 6.12z" fill="#1a1a1a"/><path d="m78.79 270.58c-.7924.026-1.5761-.173-2.2596-.575s-1.2385-.99-1.6004-1.695c-.3324-.73-.3931-1.554-.1712-2.324.2218-.77.7117-1.436 1.3812-1.876 2.63-1.95 9.84-4.14 10.15-4.23.252-.076.5233-.048.7554.075.2321.124.4062.334.4846.585.0781.253.0525.527-.0713.761-.1237.235-.3355.41-.5887.489-.08 0-7.19 2.19-9.54 3.93-.2971.167-.5211.439-.6284.762-.1072.324-.09.676.0484.988.29.466.7306.819 1.2489 1.001s1.0832.182 1.6011-.001c3.57-.82 12.34-1.73 12.71-1.77.1313-.014.264-.001.3903.037.1264.038.244.101.3461.185.1022.083.1868.186.2492.302.0624.117.1013.244.1144.376.0132.131.0003.263-.0378.39-.0382.126-.1008.244-.1844.346-.0835.102-.1864.187-.3027.249-.1163.063-.2438.101-.3751.115-.09 0-9 .93-12.46 1.73-.413.097-.8357.147-1.26.15z" fill="#1a1a1a"/><path d="m108.73 275.289c-4.398.745-8.578 2.453-12.2398 5z" fill="#fece2f"/><path d="m96.4902 281.3c-.2118-.002-.4172-.072-.5868-.199-.1695-.127-.2945-.304-.3567-.507-.0623-.202-.0587-.419.0102-.619s.1996-.374.3733-.495c3.7853-2.655 8.1188-4.425 12.6798-5.18.265-.032.532.043.742.208s.346.407.378.672-.043.532-.208.742-.407.346-.672.378c-4.235.742-8.258 2.397-11.7898 4.85-.1706.106-.3693.159-.57.15z" fill="#1a1a1a"/><path d="m104 271.91s-8.3899 2-14.6899 6.29z" fill="#fece2f"/><path d="m89.2602 279.2c-.2117-.003-.4172-.073-.5868-.2-.1695-.126-.2944-.304-.3567-.506-.0623-.203-.0587-.42.0102-.62s.1996-.373.3733-.494c6.37-4.37 14.6698-6.36 14.9998-6.44.249-.039.503.018.712.158.208.14.357.354.415.599s.021.502-.102.722c-.124.219-.325.383-.565.461-.08 0-8.2898 2-14.3498 6.15-.1627.109-.354.168-.55.17z" fill="#1a1a1a"/><path d="m87.73 294.76s-8.39 7-5.13 29.37 7.93 51.3 7.93 51.3-4.66-33.58-.93-43.37-4.67-12.12-.94-19.58-.93-17.72-.93-17.72z" fill="#fece2f"/><path d="m140.19 396.409-5.95-58.75c-.7-11.54-14.55-14.22-12.59.35.78 5.76 8.76 6.58 7.7 14-.7 4.89-2.45 5.59 1.75 10.14s-2.8 9.44 2.44 16.78 6.65 17.48 6.65 17.48z" fill="#fece2f"/><path d="m71.8802 449.1s-4.43 12.13-9.1 14.46-7.22 10.72-2.78 16.08 7-6.52 7-6.52z" fill="#1a1a1a"/><path d="m145.09 450.73s-4.43 17-3.27 22.15 4 14-.93 22.15 11 2.1 11 2.1z" fill="#1a1a1a"/><path d="m156.86 488.71c-.76-7.06-5.44-11.08-8.15.22-2.44 10.13-14.34 5.32-16.3 3.37 4.24-5.22-7.17-12.06-7.17-12.06s-13 25.42-31.9502 30.31c-18.95 4.89-7.38 14.24 1.09 15.11 30.0002 3.07 56.2802-.87 68.0002-4 9.21-2.48-1.31-11.09-1.31-11.09z" fill="#fff"/><path d="m116.59 527.77c-7.451.008-14.897-.366-22.3098-1.12-5.49-.56-11.88-4.37-12.2-8.62-.19-2.51 1.56-6 11-8.45 18.2498-4.71 31.1798-29.55 31.3098-29.8.063-.12.149-.227.254-.313.105-.085.226-.149.356-.187.132-.038.27-.049.406-.032s.266.062.384.132c.32.19 7.68 4.65 8.52 9.46.209 1.107.029 2.251-.51 3.24 1.77 1.13 6 2.76 9.5 1.79 2.3-.65 3.81-2.39 4.48-5.17 1.6-6.66 3.88-7.93 5.46-7.83 2.64.17 4.24 4 4.65 7.69l4.11 21.44c1.3 1.12 5.85 5.34 5.08 8.92-.37 1.75-1.86 3-4.43 3.67-10.04 2.71-26.71 5.18-46.06 5.18zm9-46.11c-2.64 4.81-14.84 25.41-32.0698 29.86-6.29 1.63-9.65 3.89-9.46 6.36.24 3.19 5.89 6.32 10.4 6.78 28.1998 2.9 54.0698-.34 67.6598-4 1.78-.48 2.79-1.2 3-2.16.5-2.32-3.31-6.06-4.68-7.18-.179-.152-.302-.36-.35-.59l-4.23-21.84s0 0 0-.08c-.41-3.79-1.88-5.9-2.79-6-.7 0-2.16 1.32-3.36 6.3-1.06 4.41-3.78 6-5.87 6.63-4.8 1.35-10.66-1.34-12.11-2.78-.175-.175-.28-.409-.293-.656-.013-.248.067-.492.223-.684.292-.336.504-.733.62-1.163.116-.429.134-.88.05-1.317-.52-2.78-4.45-5.94-6.72-7.48z" fill="#1a1a1a"/><path d="m73.93 472.87c-.76-7.08-5.44-11.1-8.17.22-2.44 10.15-13.88 5.44-15.84 3.48 2.88-7.09-.67-8.86-3.86-10.49-1.26-.64-2.65-.83-3.26.45-1.3616 2.81-3.0104 5.471-4.92 7.94-4.9 6.45-13.42 14.64-27.74 20.94-17.91003 7.88-5.43003 15.84 3.1 16.07 33.69.88 51.07-2.83 62.83-6 9.23-2.48-.34-13.63-.34-13.63z" fill="#fff"/><path d="m23.1101 512.611c-3.14 0-6.43 0-9.89-.13-5.64005-.15-12.22005-3.26-13.1300494-7.64-.4999996-2.56.7699994-6.44 9.6499994-10.35 14.49005-6.37 22.86995-14.73 27.34995-20.62 1.8601-2.422 3.4715-5.025 4.8101-7.77.1426-.318.3483-.603.6044-.838.2561-.236.5574-.417.8855-.532.5246-.134 1.0706-.163 1.6063-.084s1.0502.264 1.5137.544c3.12 1.59 7.2901 3.72 4.6001 11.07 1.62 1.09 5.84 2.8 9.22 1.85 2.28-.65 3.78-2.41 4.46-5.25 1.61-6.68 3.87-8 5.47-7.85 2.67.18 4.26 4 4.67 7.76l1.77 18.68c1 1.28 5.4399 7 4.1399 11.23-.57 1.85-2.0899 3.12-4.5099 3.77-11.51 3.1-26.78 6.16-53.22 6.16zm21.2-46c-.0896-.012-.1805-.012-.27 0-.1 0-.22.1-.34.34-1.3871 2.869-3.0624 5.59-5 8.12-4.62 6.08-13.25 14.7-28.14 21.24-6.00005 2.64-9.00005 5.53-8.48005 8.13.63 3.25 6.55 5.9 11.21005 6 32.41.85 49.8-2.53 62.54-6 1.74-.47 2.76-1.27 3.12-2.43.93-3-2.54-7.93-4-9.58-.1364-.157-.2202-.353-.24-.56l-1.8-19c-.41-3.8-1.89-5.9-2.8-6-.7 0-2.16 1.32-3.36 6.31-1.08 4.48-3.79 6.12-5.87 6.71-4.49 1.27-10.06-1.15-11.66-2.75-.1131-.126-.1925-.278-.231-.442s-.0347-.336.0109-.498c2.53-6.21-.1899-7.6-3.3499-9.21-.4111-.234-.8686-.374-1.34-.41z" fill="#1a1a1a"/><path d="m219.69 191s31.25.46 40.8-3c-.46 13.05-7 40.33-9.32 44.53 0 0-7.23-11.43-2.1-19.35s6.06-9.8 2.8-13.29-32.18-8.89-32.18-8.89z" fill="#1a1a1a"/><path d="m178 218.75s-1.4 23.55-8.39 27.28-10 11.89-10 11.89l21.39-7.23z" fill="#1a1a1a"/><path d="m198.55 123.23c-11.47 0-17.74-3.84-18.09-4.06-.121-.065-.228-.153-.313-.261-.086-.107-.148-.231-.183-.364-.036-.133-.044-.271-.023-.407.02-.136.069-.266.142-.382.073-.117.169-.217.282-.294.113-.078.241-.131.376-.157s.274-.024.408.006c.134.031.26.088.371.169.11.07 11.27 6.83 31 2 16.33-4.05 20.61-9.63 22.8-15.06.049-.122.121-.234.212-.328.092-.094.201-.169.322-.221s.251-.08.382-.082.262.022.384.071.234.121.328.212c.094.092.169.201.221.322s.08.25.082.382c.002.131-.022.262-.071.384-3.23 8-10.46 12.86-24.18 16.26-4.726 1.185-9.578 1.792-14.45 1.81z" fill="#1a1a1a"/><path d="m117.63 507.45c5.496 3.137 9.569 8.274 11.37 14.34 4.37-.88 14.34-2.63 14.34-2.63s-7.11-15.38-15.39-21.68c-4.02 4.37-10.32 9.97-10.32 9.97z" fill="#fece2f"/><path d="m34.3999 490.89c5.4893 3.142 9.5576 8.277 11.36 14.34 4.38-.87 13.88-3.79 13.88-3.79s-6.64-14.22-14.92-20.51c-4.03 4.37-10.32 9.96-10.32 9.96z" fill="#fece2f"/><path d="m109.49 511.999c-3.376-.165-6.637-1.277-9.41-3.21-.2148-.156-.3586-.392-.3999-.654-.0412-.263.0235-.531.18-.746.1569-.215.3919-.358.6549-.4.262-.041.53.024.745.18.07 0 7 4.95 12.55 1.7 7.27-4.23 17.72-17.06 17.82-17.19.167-.207.41-.339.674-.367s.529.05.736.217.339.41.367.674c.028.265-.05.529-.217.736-.44.54-10.79 13.24-18.38 17.65-1.613.942-3.452 1.43-5.32 1.41z" fill="#1a1a1a"/><path d="m97.47 526.111c-2.1393.036-4.2783-.084-6.4-.36-.1313-.021-.2572-.068-.3705-.138-.1133-.069-.2117-.161-.2897-.268-.078-.108-.1341-.23-.1649-.36-.0309-.129-.0359-.263-.0149-.394.021-.132.0677-.258.1374-.371.0696-.113.1609-.212.2686-.29.1078-.078.2298-.134.3591-.165.1294-.03.2636-.035.3949-.014 10.55 1.7 59.43-3.07 68.67-13.83.174-.202.42-.326.686-.346.265-.02.527.067.729.241.202.173.326.42.346.685.019.266-.067.528-.241.73-8.51 9.92-46.76 14.88-64.11 14.88z" fill="#1a1a1a"/><path d="m10.8201 511.151c-1.46471.021-2.92895-.069-4.37997-.27-.26522-.043-.50272-.189-.66025-.407-.15753-.217-.22219-.488-.17975-.753.04243-.266.18848-.503.40603-.661.21754-.157.48875-.222.75397-.179 10.84997 1.75 58.64997-6 67.99997-16.8.1724-.202.4178-.327.6822-.347.2645-.021.5263.064.7278.237.2016.172.3264.417.347.682.0207.264-.0646.526-.237.728-8.96 10.42-49.28 17.77-65.46 17.77z" fill="#1a1a1a"/><path d="m25.4402 497c-3.64 0-7-2.3-8.72-4.05-.1857-.19-.2884-.446-.2856-.711s.111-.519.3006-.704c.1896-.186.4452-.289.7106-.286s.5187.111.7044.301c.25.26 6.1 6.11 11.25 2 6.18-4.9 18.24-15.42 19.69-17.54.0734-.111.168-.205.2782-.278.1102-.074.2339-.124.3638-.149.13-.025.2636-.025.3932.002s.2525.08.3617.154c.1092.075.2025.171.2744.282.072.111.1211.235.1447.366.0235.13.021.263-.0075.393-.0285.129-.0824.251-.1585.36-1.73 2.52-14.41 13.46-20.09 18-1.4709 1.201-3.311 1.858-5.21 1.86z" fill="#1a1a1a"/><path d="m283.92 288.11s6.19-13.23 15.76-20.65 4.94-9.53-2.94-6.45-16.46 11-21.21 21.63 4.2 12.28 8.39 5.47z" fill="#fff"/><path d="m313.62 258c-2 1-6.5-1.49-2.73-4.29s7-3 11.27-3.29 4.1 2.19 1.47 3.22-7.53 3.15-10.01 4.36z" fill="#fff"/><g fill="#1a1a1a"><path d="m26.8202 491.66c-.1561-.001-.3097-.039-.4486-.11-.139-.071-.2593-.174-.3514-.3-.513-.756-1.1834-1.393-1.9653-1.866s-1.6567-.771-2.5647-.874c-.2652 0-.5195-.106-.7071-.293-.1875-.188-.2929-.442-.2929-.707s.1054-.52.2929-.707c.1876-.188.4419-.293.7071-.293 1.2136.112 2.3878.489 3.44 1.104 1.0521.615 1.9567 1.453 2.65 2.456.0778.106.1338.227.1648.355s.0365.26.016.39c-.0204.131-.0663.255-.1351.368-.0688.112-.1591.209-.2657.287-.1576.114-.3453.18-.54.19z"/><path d="m109.74 507.22c-.137 0-.273-.029-.398-.084-.126-.055-.239-.135-.332-.236-.59-.698-1.325-1.26-2.154-1.647s-1.731-.589-2.646-.593c-.264.019-.524-.067-.725-.239-.2-.172-.325-.417-.345-.681-.02-.261.064-.518.232-.718s.408-.327.668-.352c1.219-.027 2.428.216 3.542.712 1.114.497 2.103 1.234 2.898 2.158.133.143.221.322.253.514.032.193.008.391-.071.569-.079.179-.208.33-.372.436-.164.107-.355.162-.55.161z"/><path d="m114.7 502.321c-.132-.005-.262-.035-.382-.09s-.228-.133-.318-.23c-.589-.698-1.322-1.259-2.149-1.646s-1.728-.589-2.641-.594c-.265.022-.528-.061-.732-.233-.203-.171-.33-.417-.353-.682-.022-.265.061-.529.233-.732.172-.204.417-.331.682-.353 1.218-.02 2.424.227 3.536.725 1.111.497 2.099 1.233 2.894 2.155.179.195.273.453.261.717-.011.265-.126.514-.321.693-.192.18-.447.277-.71.27z"/><path d="m119.65 497.43c-.14 0-.277-.029-.405-.086-.127-.057-.242-.14-.335-.244-.586-.7-1.319-1.263-2.146-1.649-.828-.385-1.731-.583-2.644-.581-.264.02-.524-.066-.725-.239-.201-.172-.325-.417-.345-.681-.022-.262.06-.522.228-.724.169-.203.41-.33.672-.356 1.219-.021 2.427.226 3.54.724s2.103 1.234 2.9 2.156c.178.196.272.454.261.718s-.127.513-.321.692c-.184.173-.427.27-.68.27z"/><path d="m124.55 491.249c-.139 0-.277-.03-.405-.087-.127-.056-.241-.139-.335-.243-.59-.695-1.324-1.254-2.151-1.639-.826-.385-1.727-.587-2.639-.591-.131.011-.263-.004-.389-.044-.125-.041-.242-.106-.342-.191-.101-.086-.183-.19-.243-.308-.06-.117-.096-.245-.106-.377-.019-.262.065-.521.236-.721.17-.201.412-.326.674-.349 1.219-.026 2.428.217 3.542.714 1.113.496 2.103 1.232 2.898 2.156.133.143.221.322.253.515.033.192.008.39-.071.568-.078.179-.208.331-.372.437-.163.106-.355.162-.55.16z"/><path d="m32.0702 487c-.1578 0-.3134-.037-.4542-.108s-.2627-.175-.3558-.302c-.5099-.757-1.1783-1.394-1.9587-1.867-.7805-.473-1.6544-.771-2.5613-.873-.2652 0-.5195-.106-.7071-.293-.1875-.188-.2929-.442-.2929-.707 0-.266.1054-.52.2929-.708.1876-.187.4419-.292.7071-.292 1.2148.107 2.3908.482 3.4436 1.098 1.0529.615 1.9566 1.456 2.6464 2.462.155.212.2198.478.1805.738s-.1796.494-.3905.652c-.1593.12-.3508.189-.55.2z"/><path d="m37.7802 481.519c-.1578.001-.3134-.036-.4542-.108-.1408-.071-.2627-.174-.3558-.302-.5105-.756-1.1789-1.393-1.9593-1.866-.7803-.473-1.654-.771-2.5607-.874-.2652 0-.5196-.105-.7071-.293-.1875-.187-.2929-.442-.2929-.707s.1054-.519.2929-.707c.1875-.187.4419-.293.7071-.293 1.216.108 2.3932.484 3.4476 1.099 1.0543.615 1.96 1.456 2.6524 2.461.1091.149.1746.326.1894.51.0148.185-.0218.369-.1058.534-.0839.165-.2118.303-.3696.399-.1577.097-.3391.148-.524.147z"/><path d="m27 476.469c-1.3263.092-2.6453-.26-3.75-1-.5055-.423-.9091-.955-1.1809-1.555-.2718-.601-.4048-1.255-.3891-1.915-.0783-.72.0339-1.448.3252-2.111.2913-.664.7515-1.239 1.3348-1.669 4-2.9 14 .74 15.08 1.16 2.1025.73 4.0325 1.883 5.67 3.39.1474.153.2423.349.2711.559.0288.211-.0101.425-.1111.611-.1007.188-.2588.339-.4513.431s-.4093.12-.6187.079c-2.38-.47-5.78.26-9.08 1-2.3279.57-4.7058.912-7.1 1.02zm.67-7.38c-1.1102-.076-2.2177.182-3.18.74-.3144.239-.5578.559-.7041.925-.1462.367-.1898.766-.1259 1.155-.0259.373.0336.747.174 1.094.1403.347.3578.657.636.906 1.56 1.2 5.44.38 9.2-.42 2.1341-.505 4.2986-.872 6.48-1.1-.7746-.428-1.5842-.789-2.42-1.08-3.2137-1.248-6.5996-1.997-10.04-2.22z"/><path d="m215.5 266.309s11.29-8.91 14-15.15c4.43-10.26 15.62-10.73 14-3.5s-21.94 17.72-28 18.65z"/><path d="m43.3798 474.471c-.1578 0-.3134-.037-.4542-.108s-.2627-.175-.3558-.302c-2-2.68-5.87-3.86-11.14-4.8-4.86-.86-5.18-2.9-5.1-3.73.2-2 3-3.25 6.87-3.15h.14c5.21.89 8.67 3 11 10.78.0673.225.053.467-.0402.682-.0933.216-.2596.392-.4698.498-.1376.078-.2918.122-.45.13zm-10.63-10.09c-3 0-4.39.95-4.43 1.35 0 .15.52 1 3.46 1.56 3.76.68 6.91 1.48 9.3 2.87-1.88-3.94-4.35-5.14-8-5.78z"/><path d="m107.2 499.68c-.447.001-.892-.063-1.32-.19-1-.34-2.74-1.4-2.36-4.75.68-5.93 11.22-7.81 14.75-8.28.076-.184.201-.343.36-.46.86-.64 1.71.24 2.61 1.17.148.154.243.353.27.565s-.015.428-.12.615c-3.89 6.98-10.22 11.33-14.19 11.33zm11.86-11.3c-4 .46-13.07 2.39-13.55 6.59-.17 1.47.16 2.35 1 2.61 2.42.79 8.55-2.73 12.55-9.2z"/><path d="m108.17 490.609c-.559.02-1.115-.079-1.633-.291-.517-.212-.983-.532-1.367-.939-.507-.615-.824-1.364-.911-2.157-.087-.792.059-1.593.421-2.303.491-.959 1.251-1.754 2.187-2.287s2.008-.78 3.083-.713h.16c4.19-.28 10.15 2.61 12.8 6.17.143.194.212.432.193.672s-.124.466-.295.635c-.172.169-.398.27-.638.286-.241.015-.478-.057-.67-.203-1.82-1.41-5.22-1.17-11 .77-.751.249-1.539.371-2.33.36zm1.76-6.73c-.697-.056-1.395.091-2.01.425-.614.334-1.118.84-1.45 1.455-.19.357-.275.761-.245 1.165.03.403.174.79.415 1.115.58.65 1.73.75 3.16.27 2.731-1.051 5.616-1.645 8.54-1.76-2.53-1.71-5.75-2.85-8.16-2.67z"/></g></g></svg></g><!--ITEM: Illustration component 5--><g transform="translate(2332.0 1580.0) rotate(0.0 246.0 246.0) translate(14.0 14.0) scale(3.5652173913043477 3.5652173913043477)"><svg width="134.0731707317073" height="134.0731707317073" viewBox="3.9268292682926833 3.9268292682926833 134.0731707317073 134.0731707317073"><clipPath id="a-i5"><path d="m0 0h137.667v137.667h-137.667z" fill="#000000"/></clipPath><g clip-path="url(#a-i5)"><path d="m136.167 1.5h-134.667v134.667h134.667z" fill="#ffffff" stroke="#1a1a1a" stroke-miterlimit="10" stroke-width="3"/></g></svg></g><!--ITEM: Illustration component 6--><g transform="translate(2956.0 768.0) rotate(0.0 -620.0 685.0) translate(-144.0 0.0) scale(-3.0097087378640777 3.0309734513274336)"><svg width="364.1548387096774" height="426.265693430657" viewBox="47.84516129032258 0.0 364.1548387096774 426.265693430657"><clipPath id="a-i6"><path d="m0 0h411.438v451.7h-411.438z" fill="#000000"/></clipPath><g clip-path="url(#a-i6)"><path d="m274.653 144.8s12.3-16.8 24.5-30.3c12.2-13.6 40.3-35.5 40.3-35.5s10.1 15.3 15 18.6c0 0-8.5 12.4-11.5 21.3-3 8.8-13.4 32.1-24.9 46.7s-22 21.5-28.6 22.3-19.5-9.6-19.7-20.9c.1-11.5 1.5-16.4 4.9-22.2z" fill="#fece2f"/><path d="m339.453 79s-28.1 21.9-40.3 35.5-24.5 30.3-24.5 30.3c-.847 1.492-1.614 3.028-2.3 4.6 5.9.1 12.4.1 12.4.1l1-2.7s27.1-47 55.7-64.7v-.2c-1.2-1.8-2-2.9-2-2.9z" fill="#fff"/><path d="m350.953 69.9991s14.1-5.9 14.4-6 5.2-2.2 5.2-2.2l5-6.2s5.4-10.6 7.3-9.7 1.1 7.4-.4 10.2l2.5-.7 5-4.3s9.8-8.6 11.1-6.3c1.3 2.2-3 7.1-3 7.1l-5.4 6s16.6-6.8 17.5-4.2-6.9 7.8-11.3 9.9-24.2 6.9-23.6 12.6 14 11.3 17 13.9 4.6 5.7 3 7.1-13.4-4.4-13.4-4.4-6.3-3-8-3-7.3-.8-9.9.2z" fill="#fece2f"/><path d="m383.853 60s16-10.7 15.7-14.5c0 0-10.2 6.4-10.3 6.5-.38.2653-.782.4994-1.2.7l-3.1 2.6-1.8.4c-4.1 2.6-8.7 5.6-8.7 5.6z" fill="#fff"/><path d="m370.753 61.4997 4.2-.9c4.4-4.2 7.1-10.9 8.3-14.4-.114-.1235-.25-.2252-.4-.3-.8-.4-2.3 1.4-3.8 3.6-1.2 2.2-3.1 5.8-3.1 5.8l-1 1z" fill="#fff"/><path d="m353.553 73.3004s11.6-6.3 20.1-7.5c12.224-1.6996 24.005-5.74 34.7-11.9l-15.6 3.8-13 3.4s-14.6 2.2-20.2 5.2c-5.7 2.9-9 4.6-9 4.6z" fill="#fff"/><path d="m339.453 73.7003c-1.7 2.5 2.8 8.8 6.8 14.3 3.9 5.5 10.1 12.4997 12.9 10.4 2.8-2.1-2-9.2-7.4-15.9-5.3-6.8-10.2-12.1-12.3-8.8z" fill="#fff"/><path d="m345.752 74.9992s-2.8-2.8-1.2-5c2.2-3.2 5.9-.4 14.3 8.9 8.5 9.2 7.3 11.5 5.9 12.8-1.3 1.2-4.9 1.1-8.8-3.9-4-5.1-10.2-12.8-10.2-12.8z" fill="#fff"/><path d="m411.253 53.2005c-.071-.2209-.188-.4242-.343-.5965-.155-.1724-.345-.3099-.557-.4035-1.7-.8-6.2.4-14.3 3.2 3.2-2.8 6.6-6.4 6.8-9.1.044-.4574-.014-.9188-.169-1.3511-.156-.4323-.405-.8247-.731-1.1489-1.8-1.7-5.3.8-12.9 6.9-1.8 1.5-3.5 2.8-4.7 3.6l-.9.6c1.5-2.8 2.3-6.1 1.6-8.3-.15-.4574-.412-.8704-.761-1.202s-.774-.5714-1.239-.698c-2.5-.5-4 2.4-6 6-.724 1.442-1.525 2.8441-2.4 4.2-2.028 2.918-4.652 5.3721-7.7 7.2-.239.126-.419.3418-.5.6-5.2 1.6-14 5.3-16.4 6.2-1.078-.8595-2.421-1.3189-3.8-1.3-.563.0594-1.106.2427-1.59.5366s-.897.6912-1.21 1.1634c-.529.8314-.741 1.8249-.6 2.8-.628-.295-1.307-.4649-2-.5-.51.0168-1.007.1634-1.444.4258-.438.2625-.801.6322-1.056 1.0742-.9 1.3-.7 3 .2 5.2-13.286 9.8183-25.821 20.6149-37.5 32.2995-18.2 18.5-27.5 33-27.6 33.1-.154.241-.209.531-.153.811s.218.527.453.689c.183.111.388.18.6.2.18.001.358-.044.516-.132.157-.087.29-.214.384-.368.117-.21.251-.41.4-.6l2.2.5 3.8-.6c-3.9-1-2.3-4.8-1.3-6.5 2.6-3.5 6.2-8 10.9-13.3 4.878 2.992 9.435 6.477 13.6 10.4-3.7 5.7-7.5 12.1-11.3 18.9-.138.254-.173.551-.099.83.075.279.253.519.499.67.189.082.395.116.6.1.206.004.409-.05.586-.156s.32-.26.414-.444c3.7-6.7 7.4-12.8 11-18.4 6.316 6.061 11.858 12.879 16.5 20.3l-2.4 3.6c-1.6 2.4-3.4 4.6-5.1 6.7-16.4 13.8-17.5-5-17.5-5s-1.5-.9-1.2 7.2c.3 7.2-5.8 16.3-7.2 18.2-.582.277-1.184.511-1.8.7-.145.05-.277.131-.388.237s-.198.234-.255.376c-.057.143-.082.295-.075.449.007.153.048.302.118.438.089.196.229.364.404.487.176.123.382.197.596.213.141.015.283-.02.4-.1 12.3-4.7 23.7-14.3 33.7-28.6 7.9-11.2 14.9-25 21.6-42.3 5.2-13.5 10.8-20.0995 10.8-20.1995s.1-.1.1-.2c.684.4097 1.425.7131 2.2.9h.6c.68.001 1.344-.2086 1.9-.6.345-.2608.63-.5917.837-.971s.33-.7982.363-1.229c.041-1.5274-.302-3.0406-1-4.4.776.4031 1.627.6414 2.5.7h.3c.495.0268.989-.0481 1.454-.2201.464-.172.888-.4374 1.246-.7799.512-.4587.891-1.0455 1.1-1.7 4.8-1.5 11.8 1.8 17.5 4.4 4 1.8 7.2 3.4 9.6 3.4.516.0069 1.027-.0953 1.5-.3.403-.1482.767-.3879 1.062-.7002s.513-.6888.638-1.0998c1.6-4.1-4.6-8-11.2-12.1-4.3-2.7-9.3-5.8-9.6-7.8-.1-.6.3-2.2 5.8-5.2 4.36-2.2017 8.832-4.1712 13.4-5.9 2.758-1.0269 5.462-2.1951 8.1-3.5 6-3 9.1-5.5 8.1-8.5zm-25.7 3c1.2-.8 2.9-2.2 4.8-3.7 3-2.4 8.5-6.8 10.1-6.9.1.1.1.3.1.6-.2 2.8-6.8 8.5-11 11.5-3.621.9945-7.293 1.7956-11 2.4 2.439-1.1003 4.781-2.4049 7-3.9zm-9.1-.1c.925-1.413 1.76-2.8825 2.5-4.4 1.2-2.2 2.7-5 3.6-4.8.1 0 .3.3.3.4.6 1.7-.4 6.2-3.6 9.9l-.1.1c-2.1 1.1-4.4 2.1-6.2 2.9 1.37-1.179 2.551-2.5619 3.5-4.1zm-32.4 30.9c-6.358 5.8145-12.306 12.0629-17.8 18.6995-3.051-2.599-6.41-4.816-10-6.5995 11.2-10 20.7-17.1 23.3-19 1.38 2.3763 2.882 4.6794 4.5 6.9zm-51.2 35.7995c2.9-3.3 6.3-6.9 9.9-10.7 3.9-4 7.9-7.8 11.7-11.2 3.733 1.736 7.201 3.991 10.3 6.7-6.687 8.124-12.929 16.603-18.7 25.4-4.013-3.873-8.439-7.294-13.2-10.2zm15 11.7c5.791-8.815 12.033-17.326 18.7-25.5 5.036 4.648 9.41 9.964 13 15.8-4.158 10.385-9.211 20.39-15.1 29.9-4.678-7.392-10.254-14.177-16.6-20.2zm45.4-36.7995c-.2.3-5.9 6.8995-11.2 20.8995-.5 1.2-1 2.5-1.5 3.7-3.529-5.527-7.765-10.569-12.6-15 .7-.9 1.4-1.7 2.1-2.5 4.741-5.634 9.852-10.9458 15.3-15.8995 1.7 2.2 4.8 6.3 7.9 8.8zm5.5-.9c.011.1432-.021.2864-.093.4112-.071.1247-.178.2253-.307.2888-.1.1-.3.2-.7.1-2.2-.3-6.3-4.4-10.6-10.3-3-4.2-8-11.1-6.8-13 .3-.4.5-.5.7-.5 1.9-.1 5.8 4.4 8.4 7.5.6.8 1.3 1.6 2 2.5 6.4 8.2 7.6 11.6 7.4 13zm5.2-6c-.185.1355-.396.2319-.619.2835-.224.0516-.455.0572-.681.0165-.8 0-3.1-.6-5.9-4.1-1.2-1.5-2.5-3.1-3.8-4.8-.1-.1-.2-.3-.4-.4-.4-.6-.9-1.1-1.3-1.6-2.5-3.2-4.6-5.8-4.7-5.8s0 0-.1-.1c0 0-2.1-2.2-1.1-3.6.246-.4019.642-.6896 1.1-.8h.1c.999.1233 1.939.541 2.7 1.2l.1.1c3.091 2.5973 5.967 5.4399 8.6 8.5 5.4 5.8 6.6 8.5 6.5 9.9-.081.1889-.116.3948-.1.6 0 .2-.3.5-.4.6zm38.2-30.7c-2.516 1.317-5.123 2.4532-7.8 3.4-12.1 4.9-21.4 9-20.5 13.6.6 3 5.2 5.9 10.6 9.3 5 3.1 11.3 7 10.3 9.4-.08.2032-.219.3775-.4.5-1.5.6-5.5-1.3-9.3-3.1-5.8-2.7-12.8-6-18.4-4.7-.5-2.3-2.5-5.5-7-10.3-2.322-2.703-4.828-5.2424-7.5-7.6 3.9-1.6 13-5.2 16.8-6.2 2.7-.7 6.1-1.3 9.4-1.8 4.066-.5272 8.08-1.397 12-2.6.8-.3 1.9-.7 3.1-1.1 3.7-1.3 13.5-4.9 15.6-4.6.2 1.5-3.6 3.8-6.9 5.8z" fill="#1a1a1a"/><path d="m182.753 187.299c7.7-3.4 64-33.4 72.2-37 8.2-3.5 28.6-11.6 39.2 4.3s-6.9 36.8-14.9 44.6-32.3 28.7-71.7 43.3-55.1 6.2-59.7-11.2c-4.7-17.3 4.9-30.8 34.9-44z" fill="#fece2f"/><path d="m288.753 149c-11.1-7.9-26.8-1.6-33.7 1.4-8.2 3.5-64.6 33.6-72.2 37-1 .4-2 .9-2.9 1.3 4 2.3 7.3 4.2 7.6 4.1.7-.2 11.9-3.7 11.9-3.7s28.4-15.3 42.7-23.3c13.9-7.9 32.5-19.1 46.6-16.8z" fill="#fff"/><path d="m293.353 151.501c-7.2-8.9-18.8-10.3-34.4-4.3-9.8 3.8-84.3 43-94.6 48.8-9.8 5.6-15 11.6-17.6 20-1.076 3.929-1.321 8.04-.718 12.069s2.039 7.888 4.218 11.331c4.4 6.7 11.7 10.8 21.1 11.9 1.1.1 2.3.2 3.5.2 13.1 0 34.5-6.7 56.1-17.7 26.7-13.5 48.7-30.9 60.5-47.7 13-18.3 4.8-31.1 1.9-34.6zm-33.5-2.1c5.097-2.174 10.56-3.362 16.1-3.5 6.6 0 11.9 2.4 15.8 7.1.3.3.6.8 1 1.3-1.1.8-2.8 2.2-5.2 3.9-1.419-1.713-3.318-2.962-5.453-3.587-2.134-.625-4.407-.597-6.526.081-2.118.677-3.986 1.973-5.362 3.72-1.376 1.748-2.197 3.867-2.359 6.086-.184 2.269.34 4.54 1.5 6.5-2.1 1.4-4.3 2.9-6.6 4.4-2.222-3.678-4.801-7.128-7.7-10.3-2.97-3.353-6.445-6.221-10.3-8.5 7.4-3.7 13-6.4 15.1-7.2zm-17.5 8.4c4.2 2.326 7.985 5.334 11.2 8.9 2.739 3.062 5.184 6.377 7.3 9.9-8.4 5.4-17.8 11.3-27.9 16.9-1.8-3-3.7-5.7-5.4-8.1-3.586-4.974-7.637-9.595-12.1-13.8 9.6-5 19.1-9.9 26.9-13.8zm-4.8 70.2c-18.1 8.3-18.7-8.2-18.7-8.2l.2 9.3 1.1 7.6c-17.8 8-34.4 12.7-45.1 12.7-1.2 0-2.4-.1-3.4-.2-8.9-1-15.4-4.7-19.5-10.9-1.99-3.168-3.302-6.715-3.853-10.415-.551-3.701-.328-7.475.653-11.085 2.4-7.9 7.4-13.5 16.6-18.7 6-3.4 27-14.6 47.7-25.3 6.812 6.486 12.731 13.851 17.6 21.9-5.9 3.2-11.9 6.4-18.1 9.4-.138.058-.261.145-.362.255-.102.11-.178.24-.226.382-.047.142-.064.292-.048.441.015.148.061.292.136.422.094.183.237.337.414.443s.38.16.586.157c.172.006.344-.028.5-.1 6.2-3 12.3-6.2 18.3-9.5 5.121 8.658 8.612 18.182 10.3 28.1.001.077.02.153.055.222.034.069.084.13.145.178-1.7 1-3.4 1.9-5 2.9zm6.9-4c-1.759-10.054-5.316-19.708-10.5-28.5 10.1-5.6 19.6-11.5 27.9-16.9 4.477 8.114 7.745 16.84 9.7 25.9-8.421 7.31-17.492 13.837-27.1 19.5zm45.3-39c-4.754 6.49-10.185 12.457-16.2 17.8-1.965-8.93-5.233-17.522-9.7-25.5 2.4-1.5 4.6-3.1 6.8-4.5 1.921 2.11 4.559 3.429 7.4 3.7 1.466.119 2.941-.054 4.339-.508 1.399-.454 2.694-1.181 3.81-2.139 1.115-.958 2.03-2.128 2.691-3.441.662-1.314 1.056-2.746 1.16-4.212.191-2.118-.262-4.245-1.3-6.1 2.3-1.7 4-2.9 5.1-3.8 2.8 5.2 5.3 15.3-4.1 28.7z" fill="#1a1a1a"/><path d="m188.653 183.6c-9.8-2.2-22.9-2-34.8 9.4s-29.4 45.5-44.2 60.6c-14.8003 15.1-42.8003 31.5-69.1003 36.5 0 0 16.2 35.6 62.6003 78.6 46.5 42.9 61.6 44.2 61.6 44.2s27-27.8 42-82.3c15.9-57.1 23.6-137.4-18.1-147z" fill="#fece2f"/><path d="m185.852 336.8s-15.5 44.4-43.5 64.4l-3.2-1.6s15.8-11.9 26.1-28.7 18.8-38.4 18.8-38.4l2.7 2.2z" fill="#fff"/><path d="m103.253 368.7 2.7 2.6s23.2-18.3 37.7-39.6c16.9-24.7 22.7-44.3 22.7-44.3l-2.7-1.9s-3.2 19.4-26.7 49.5c-23.5 30-33.7 33.7-33.7 33.7z" fill="#fff"/><path d="m66.2523 329.1c17.6328-8.785 33.4177-20.87 46.4997-35.6 21.3-24.3 36.6-54.5 38.1-69.1l-5.2 5.8s-11 32.5-34.5 58.4c-23.4997 25.9-47.4997 36.4-47.4997 36.4z" fill="#fff"/><path d="m175.453 182.6s-23.9 7.8-34 35.5c-10.1 27.6-12.6 36.7-37.6 56.7-23.4999 18.8-54.3999 30.7-54.3999 30.7l-9-15.4s29-6.8 52.7-22.8c17.4999-11.8 25.8999-22 30.7999-31.7s26.3-49.8 51.5-53z" fill="#fff"/><path d="m45.4529 300.1s-9.3 9.6-15.7 12.6c0 0 7.7 25.1 44.9 64.5 37.2001 39.3 58.5001 49.4 60.0001 50 0 0 13.9-10.8 18.6-18.4 0 0-25-14.8-61.7001-52-36.8-37.3-45.7-55.5-46.1-56.7z" fill="#fece2f"/><path d="m45.3523 300.9s3.1 3.4 2.7 3.7c-5.0544 4.768-10.6217 8.96-16.6 12.5l-1.3-4s8-5.2 10.3-7.2c2.1-2 4.9-5 4.9-5z" fill="#fff"/><path d="m146.352 429.9s-8.8 14-45.7 19.8c-36.9996 5.8-63.0996-12.9-70.3996-18.9s-28-23-29.699999-61.4c-1.700001-38.4 26.499999-66.4 26.499999-66.4s-1.5 11.6 23 43.7 52.2996 59 63.0996 67 23.5 15.8 33.2 16.2z" fill="#fece2f"/><path d="m27.0527 317c4.7179 12.113 11.5584 23.288 20.2 33l2.9-3.4s-14.2-18.1-18.7-29.6z" fill="#fff"/><path d="m47.4531 351.599c14.8783 19.671 31.733 37.765 50.3 54 31.0999 27.4 46.7999 26.6 46.7999 26.6s2.9-1.6 2.4-1.9c-.5-.4-16.3-1.7-41.4-23.4-25.0999-21.7-54.7999-59.2-54.7999-59.2z" fill="#fff"/><path d="m120.953 419.301 3.6 2.2s-18 12.7-37.0001 17.2c-19 4.5-32.2 4.2-41.3 2.1 0 0 23.8-.4 43.6-6.6 19.8001-6.2 31.1001-14.9 31.1001-14.9z" fill="#fff"/><path d="m88.7529 391.401s-27.5 33.1-57.5 39.2c.1-.6 19.3-7.5 30.2-17.3s24.4-24.5 24.4-24.5z" fill="#fff"/><path d="m51.5532 349s-15.3001 14.3-21.8001 35.7c-6.1 20.2.6 44.4.6 44.4s-11.7-22.1-3.7-47.4 22.3-36.1 22.3-36.1z" fill="#fff"/><path d="m32.353 319.5-.2-.5c-1.1837-2.332-2.2191-4.737-3.1-7.2l-.3-.8v-.2c-1.9-5.5-1.6-7.9-1.6-7.9s-28.20001 28-26.500013 66.4c1.600003 37 20.900013 54.1 28.800013 60.7h.3s-14.7-21.5-16-57.9c-1.3-36.2 18.6-52.6 18.6-52.6z" fill="#fff"/><path d="m155.553 306.201c-.172.006-.344-.028-.5-.101-.138-.058-.261-.145-.362-.255-.102-.11-.178-.24-.226-.382-.047-.142-.064-.292-.048-.441.015-.148.061-.292.136-.422 1.1-2.4 2.5-5.499 3.7-8.399 2.85-6.568 5.158-13.357 6.9-20.301.022-.143.075-.28.155-.401.08-.122.186-.224.31-.3.123-.076.262-.124.406-.141.145-.017.291-.003.429.042.141.028.274.084.392.166s.218.187.293.309.124.259.144.401.01.286-.029.424c-1.824 7.042-4.198 13.93-7.1 20.6-1.2 2.9-2.6 6-3.7 8.5-.056.198-.173.372-.335.498s-.36.197-.565.203z" fill="#fece2f"/><path d="m72.4529 350.2c-.8389-.016-1.667.191-2.4.6-8.8-9.3-20-26.2-22.5-29.8.506-.475.9091-1.048 1.1843-1.684.2752-.637.4167-1.323.4157-2.016 0-1.029-.3049-2.034-.8763-2.889s-1.3835-1.522-2.3337-1.916c-.9502-.393-1.9957-.496-3.0044-.295-1.0087.2-1.9353.695-2.6625 1.423-.7273.727-1.2225 1.653-1.4232 2.662-.2006 1.009-.0976 2.054.296 3.005.3935.95 1.06 1.762 1.9152 2.333.8551.572 1.8605.877 2.8889.877.6123-.002 1.2202-.104 1.8-.3 2.4 3.6 13.7 20.6 22.7 30.1-.7154.913-1.1029 2.04-1.1 3.2 0 1.379.5479 2.701 1.5231 3.677.9752.975 2.2978 1.523 3.6769 1.523 1.3792 0 2.7018-.548 3.677-1.523.9752-.976 1.523-2.298 1.523-3.677-.0256-1.398-.5922-2.731-1.5807-3.72-.9884-.988-2.3216-1.555-3.7193-1.58zm-28.6-29.9c-.7949-.003-1.5566-.32-2.1187-.882s-.8789-1.323-.8813-2.118c-.0073-.396.0653-.79.2135-1.157.1481-.367.3688-.701.6489-.981.28-.28.6137-.501.981-.649s.7607-.221 1.1566-.213c.795.002 1.5566.319 2.1187.881s.879 1.324.8813 2.119c.0074.396-.0652.789-.2134 1.156-.1482.368-.3689.701-.6489.981-.2801.28-.6137.501-.981.649s-.7607.221-1.1567.214zm28.6 38.1c-.7956 0-1.5587-.316-2.1213-.879s-.8787-1.326-.8787-2.121c0-.796.3161-1.559.8787-2.122.5626-.562 1.3257-.878 2.1213-.878.396-.008.7894.065 1.1567.213s.7009.369.981.649c.28.28.5007.614.6489.981s.2208.761.2134 1.157c-.0023.795-.3192 1.556-.8813 2.118s-1.3237.879-2.1187.882z" fill="#1a1a1a"/><path d="m219.553 224.599c-2.9-21.6-11.1-34.8-25.2-40.3-19-7.4-35.9-1.2-50.3 18.3-4.4 6-8.1 12.1-12.1 18.6-10.7 17.7-21.8 36.1-48.1002 50.8-19.4 10.8-43.5 17-43.8 17.1-.2842.081-.5316.258-.7.5-.1312.281-.1664.598-.1.9.1.3 1.1 3.6 4.9 10.1-1.7025 1.775-3.5414 3.413-5.5 4.9-1.6-1.8-6-5.9-9.1-5.2-.3764.105-.7441.239-1.1.4-.1031-.002-.2046.026-.293.079s-.1601.13-.207.221c-6.1049 5.771-11.3275 12.409-15.5 19.7-9.74446 16.665-13.9463 35.994-11.999979 55.2 1.787859 20.626 11.371979 39.795 26.799979 53.6 4.2753 3.819 8.895 7.234 13.8 10.2.1 0 .1.1.2.1 8.8665 5.39 18.6721 9.054 28.9 10.8 4.9329.733 9.9131 1.101 14.9 1.1 9.5025.005 18.9712-1.137 28.2002-3.4 15.6-3.8 28.3-10.3 35.6-18.4.363-.364.641-.803.814-1.288.172-.484.236-1 .186-1.512-.1-2.9-3.1-6-4.4-7.3 2.991-2.987 5.828-6.124 8.5-9.4 7.4 4 10.8 4.3 11.2 4.3h.1c.169 0 .337-.036.492-.105s.294-.169.408-.295c.1-.1 9-10.8 19.1-28.7 9.4-16.5 21.8-42.6 27.7-73.7 7.1-38.1 9.3-66.7 6.6-87.3zm-134.6002 49.3c11.8453-6.475 22.3892-15.086 31.1002-25.4 2.253 5.464 4.858 10.775 7.8 15.9.6 1.1 1.3 2.2 2 3.5-6.632 10.288-14.379 19.812-23.1 28.4-3.0002 2.9-6.0002 5.7-9.2002 8.3-6.2454-8.407-12.0209-17.154-17.3-26.2 2.9-1.4 5.9-2.9 8.7-4.5zm43.8002 73.6c3.1 2.8 6.2 5.5 9.3 8.1 7.812 6.406 16.066 12.254 24.7 17.5-6.318 9.688-14.151 18.298-23.2 25.5-12.213-9.191-23.805-19.179-34.7-29.9 8.699-6.195 16.711-13.302 23.9-21.2zm-25.6 19.5c-2-2-4.0002-3.9-5.8002-5.7-9.6-9.6-21.7-22.4-32.6-35.7 10.0949-4.769 19.5935-10.71 28.3-17.7 3 4.1 6.4 8.4 10.1002 12.8 7.427 8.928 15.409 17.378 23.9 25.3-7.095 7.934-15.12 14.985-23.9 21zm36.3-13.2c-3.1-2.5-6.2-5.2-9.2-8 10.091-11.59 18.599-24.469 25.3-38.3 1 1.1 2.1 2.2 3.2 3.4 5.458 11.007 12.462 21.177 20.8 30.2-4.213 10.465-9.403 20.509-15.5 30-8.653-5.094-16.88-10.879-24.6-17.3zm-10.9-9.5c-8.392-7.856-16.275-16.24-23.6-25.1-3.7-4.4-7.1002-8.7-10.1002-12.8 3.2-2.7 6.4002-5.6 9.5002-8.5 8.571-8.425 16.215-17.745 22.8-27.8 7.619 12.492 16.391 24.243 26.2 35.1l.6.6c-6.707 13.912-15.25 26.861-25.4 38.5zm-86.7002-53.4c11.0647-3.083 21.8927-6.96 32.4-11.6 5.3183 9.25 11.1959 18.167 17.6 26.7-8.6862 7.069-18.2279 13.016-28.4 17.7-4.5-5.6-8.8-11.3-12.5-16.9-5.9-8.5-8.3-13.8-9.1-15.9zm-27.5 31c3.3975-5.934 7.4933-11.44 12.2-16.4.1 4.7 3.2 12.4 8.9 21.8 3.7468 6.211 7.8191 12.219 12.2 18-6.7873 6.77-12.3676 14.65-16.5 23.3-1.7915 3.679-3.2959 7.49-4.5 11.4-8.2927-10.244-15.6867-21.185-22.09998-32.7 1.87543-8.939 5.18485-17.517 9.79998-25.4zm104.8002 97.3c-9.515 6.279-19.8439 11.225-30.7002 14.7-7.3988-4.068-14.485-8.681-21.2-13.8-2.2-1.7-4.4-3.4-6.6-5.2 9.6688-6.93 18.2905-15.215 25.6-24.6 13.3 13.7 24.2002 22.8 32.9002 28.9zm-60.4002-5.9c-9.4512-7.982-18.2461-16.71-26.3-26.1-1.5-1.7-2.9-3.4-4.3-5.1 1.2316-4.299 2.8377-8.481 4.8-12.5 4.0389-8.316 9.4097-15.916 15.9-22.5 8.1 10.7 18.1 22.5 29.6 35.1 2.1 2.2 4.1 4.4 6 6.4-7.2448 9.507-15.9135 17.838-25.7 24.7zm-28.4 15.4c-4.0384-10.399-5.646-21.584-4.7-32.7.2918-3.783.9278-7.532 1.9-11.2 1 1.3 2.1 2.6 3.2 3.8 8.0383 9.307 16.7627 17.998 26.1 26-8.2344 5.749-17.132 10.483-26.5 14.1zm-27.69998-53.1c-.8007-8.34-.46429-16.75 1-25 6.49998 11.24 13.89038 21.941 22.09998 32-1.1942 4.286-1.9975 8.67-2.4 13.1-.8648 10.386.429 20.839 3.8 30.7-14.112-13.361-22.82974-31.437-24.49998-50.8zm29.29998 54.9c6.1186-2.353 12.0377-5.196 17.7-8.5 3.1541-1.773 6.1934-3.744 9.1-5.9 2.4 1.9 4.7 3.8 7.2 5.7 6.2675 4.691 12.8128 8.999 19.6 12.9-6.475 1.828-13.102 3.066-19.8 3.7-13.3 1.2-22.2-.5-23.6-.8-3.5928-2.076-7.0048-4.452-10.2-7.1zm38.4 17.8c-7.9169-1.333-15.5763-3.897-22.7-7.6 2.3.2 5.2.4 8.7.4 2.8 0 6-.1 9.4-.4 7.6256-.729 15.1615-2.202 22.5-4.4 7.3097 4.015 14.9352 7.427 22.8002 10.2-13.7002 3-28.4002 3.7-40.7002 1.8zm44.7002-2.9c-.1 0-.1-.1-.2-.1-8.172-2.689-16.1003-6.068-23.7002-10.1 10.6142-3.575 20.7032-8.553 30.0002-14.8 4.122 2.82 8.47 5.295 13 7.4.039.038.087.067.138.084.052.018.108.023.162.016 5.1 2.2 8.3 2.8 10 2.9-6.8 6.3-17 11.3-29.4 14.6zm19.6-19.7c-1.882-.834-3.718-1.769-5.5-2.8l4.6-5c.69.319 1.44.489 2.2.5 1.152-.026 2.261-.444 3.145-1.184s1.49-1.759 1.718-2.888c.229-1.13.067-2.304-.459-3.33-.526-1.025-1.385-1.842-2.437-2.315-1.051-.473-2.231-.574-3.348-.288s-2.103.944-2.796 1.864c-.694.921-1.055 2.05-1.022 3.202.032 1.152.455 2.259 1.199 3.139l-4.8 5.2c-1.1-.7-2.2-1.4-3.4-2.2-10-6.5-21.2-15.9-33.3002-28.1l8-8.8c.2017-.256.3078-.574.3-.9-.0286-.307-.1713-.592-.4-.8-1.2-.9-5.6-5.2-7.8-7.3.5502-.833.8614-1.802.9-2.8-.0073-1.377-.5575-2.695-1.5311-3.668-.9736-.974-2.292-1.524-3.6689-1.532-1.3711.026-2.6789.582-3.6486 1.552-.9697.969-1.5257 2.277-1.5514 3.648.0074 1.377.5576 2.696 1.5312 3.669.9736.974 2.292 1.524 3.6688 1.531.9892-.004 1.9581-.28 2.8-.8 1.4 1.4 5.1 5 7.1 6.8l-7.1 7.8c-2.9-2.9-5.8-6-8.7-9.2-31.6-34.3-44.6-55.6-49.3-67.1 4.4645-2.854 8.7401-5.994 12.8-9.4 4.1 6.1 39.3 57.3 88.1002 96.5l-4.5 5-13.3-10.5c.519-.842.796-1.81.8-2.8 0-1.028-.305-2.033-.877-2.889-.571-.855-1.383-1.521-2.333-1.915-.95-.393-1.996-.496-3.005-.296-1.008.201-1.935.696-2.662 1.423-.727.728-1.223 1.654-1.423 2.663-.201 1.009-.098 2.054.296 3.004.393.95 1.06 1.763 1.915 2.334s1.86.876 2.889.876c.989-.004 1.958-.28 2.8-.8l14.3 11.3c.212.126.453.195.7.2.156.008.312-.024.452-.094.141-.071.26-.176.348-.306l5.3-5.9c4.9 3.8 9.8 7.5 14.9 11-4.121 4.763-8.786 9.025-13.9 12.7zm-1.6-12.5c.002-.795.319-1.556.881-2.118s1.324-.879 2.119-.882c.795 0 1.559.316 2.121.879.563.563.879 1.326.879 2.121 0 .796-.316 1.559-.879 2.122-.562.562-1.326.878-2.121.878-.795-.002-1.557-.319-2.119-.881s-.879-1.324-.881-2.119zm-43.9002-42.3c-.0023.795-.3192 1.557-.8813 2.119s-1.3238.879-2.1187.881c-.5933 0-1.1733-.176-1.6667-.505-.4933-.33-.8778-.798-1.1049-1.347-.2271-.548-.2865-1.151-.1707-1.733.1157-.582.4014-1.116.821-1.536s.9541-.705 1.5361-.821c.5819-.116 1.1851-.056 1.7333.171s1.0167.611 1.3463 1.105c.3297.493.5056 1.073.5056 1.666zm23.5002 21.5c-.003.795-.319 1.557-.881 2.119-.563.562-1.324.879-2.119.881-.396.008-.79-.065-1.157-.213s-.701-.369-.981-.649-.501-.614-.649-.981-.221-.761-.213-1.157c.002-.795.319-1.556.881-2.118s1.324-.879 2.119-.882c.396-.007.789.066 1.156.214.368.148.701.369.981.649.281.28.501.613.649.981.149.367.221.76.214 1.156zm70.5-7.9c-5.424 9.795-11.645 19.127-18.6 27.9-1.5-.3-6.3-1.7-14.9-7-2.824-1.694-5.561-3.529-8.2-5.5 9.06-7.298 16.921-15.97 23.3-25.7 6.096 3.591 12.446 6.733 19 9.4-.267.25-.473.558-.6.9zm1.6-2.9c-6.512-2.688-12.827-5.829-18.9-9.4 5.928-9.311 11.046-19.114 15.3-29.3 4.839 5.048 10.018 9.759 15.5 14.1-3.514 8.412-7.486 16.624-11.9 24.6zm25.9-70c-.9 4.7-10.5-14.3-10.5-14.3l-28.4-43.3-23.9-24.3s-8.5 34.6 7.4 73.4c-.1.2-.1.3-.2.5-9.953-11.026-18.827-22.981-26.5-35.7.625-.896 1.192-1.832 1.7-2.8 7.48-12.052 13.522-24.94 18-38.4.079-.291.04-.603-.11-.865-.15-.263-.398-.455-.69-.535-.292-.079-.603-.04-.866.11-.262.15-.455.399-.534.69 0 .2-5 17.4-17.7 38-.3.6-.7 1.1-1 1.7-.5-.8-.9-1.6-1.3-2.4-3.152-5.42-5.893-11.07-8.2-16.9 6.4-7.9 11.3-16.1 16.2-24.2 3.9-6.5 7.6-12.5 11.9-18.4 7.8-10.6 16.4-17.1 25.6-19.4 6.9-1.8 14.4-1.1 22.2 1.9 13.3 5.2 21.1 17.8 23.8 38.5 2.5 20.4.3 48.7-6.9 86.7z" fill="#1a1a1a"/><path d="m155.053 295.099c.938 0 1.7-.761 1.7-1.7s-.762-1.7-1.7-1.7c-.939 0-1.7.761-1.7 1.7s.761 1.7 1.7 1.7z" fill="#fece2f"/><path d="m163.852 306.099c.939 0 1.7-.761 1.7-1.7s-.761-1.7-1.7-1.7-1.7.761-1.7 1.7.761 1.7 1.7 1.7z" fill="#fece2f"/><path d="m177.553 335.9c.938 0 1.7-.761 1.7-1.7s-.762-1.7-1.7-1.7c-.939 0-1.7.761-1.7 1.7s.761 1.7 1.7 1.7z" fill="#fece2f"/><path d="m181.653 325.599c.939 0 1.7-.761 1.7-1.7s-.761-1.7-1.7-1.7-1.7.761-1.7 1.7.761 1.7 1.7 1.7z" fill="#fece2f"/><path d="m190.653 331.701c.939 0 1.7-.761 1.7-1.7s-.761-1.7-1.7-1.7-1.7.761-1.7 1.7.761 1.7 1.7 1.7z" fill="#fece2f"/><path d="m186.153 342.4c.939 0 1.7-.761 1.7-1.7s-.761-1.7-1.7-1.7-1.7.761-1.7 1.7.761 1.7 1.7 1.7z" fill="#fece2f"/><g fill="#1a1a1a"><path d="m127.253 259.5c.939 0 1.7-.762 1.7-1.7 0-.939-.761-1.7-1.7-1.7s-1.7.761-1.7 1.7c0 .938.761 1.7 1.7 1.7z"/><path d="m119.453 269.201c.939 0 1.7-.761 1.7-1.7s-.761-1.7-1.7-1.7-1.7.761-1.7 1.7.761 1.7 1.7 1.7z"/><path d="m127.253 282.099c.939 0 1.7-.761 1.7-1.7s-.761-1.7-1.7-1.7-1.7.761-1.7 1.7.761 1.7 1.7 1.7z"/><path d="m148.153 308.599c.939 0 1.7-.761 1.7-1.7s-.761-1.7-1.7-1.7-1.7.761-1.7 1.7.761 1.7 1.7 1.7z"/><path d="m157.253 318.9c.939 0 1.7-.761 1.7-1.7s-.761-1.7-1.7-1.7-1.7.761-1.7 1.7.761 1.7 1.7 1.7z"/><path d="m173.153 373.4c.939 0 1.7-.761 1.7-1.7s-.761-1.7-1.7-1.7-1.7.761-1.7 1.7.761 1.7 1.7 1.7z"/><path d="m161.852 366.201c.939 0 1.7-.761 1.7-1.7s-.761-1.7-1.7-1.7-1.7.761-1.7 1.7.761 1.7 1.7 1.7z"/><path d="m155.553 376.201c.938 0 1.7-.761 1.7-1.7s-.762-1.7-1.7-1.7c-.939 0-1.7.761-1.7 1.7s.761 1.7 1.7 1.7z"/><path d="m167.352 383.201c.939 0 1.7-.761 1.7-1.7s-.761-1.7-1.7-1.7-1.7.761-1.7 1.7.761 1.7 1.7 1.7z"/><path d="m136.953 347.5c.939 0 1.7-.762 1.7-1.7 0-.939-.761-1.7-1.7-1.7s-1.7.761-1.7 1.7c0 .938.761 1.7 1.7 1.7z"/><path d="m128.153 338.5c.939 0 1.7-.762 1.7-1.7 0-.939-.761-1.7-1.7-1.7s-1.7.761-1.7 1.7c0 .938.761 1.7 1.7 1.7z"/><path d="m118.753 348.3c.939 0 1.7-.761 1.7-1.7 0-.938-.761-1.7-1.7-1.7s-1.7.762-1.7 1.7c0 .939.761 1.7 1.7 1.7z"/><path d="m128.453 357.5c.939 0 1.7-.762 1.7-1.7 0-.939-.761-1.7-1.7-1.7s-1.7.761-1.7 1.7c0 .938.761 1.7 1.7 1.7z"/><path d="m68.0525 417.201c.9389 0 1.7-.761 1.7-1.7s-.7611-1.7-1.7-1.7c-.9388 0-1.7.761-1.7 1.7s.7612 1.7 1.7 1.7z"/><path d="m58.6531 407.8c.9389 0 1.7-.761 1.7-1.7 0-.938-.7611-1.7-1.7-1.7s-1.7.762-1.7 1.7c0 .939.7611 1.7 1.7 1.7z"/><path d="m49.5525 415.4c.9389 0 1.7-.761 1.7-1.7s-.7611-1.7-1.7-1.7c-.9388 0-1.7.761-1.7 1.7s.7612 1.7 1.7 1.7z"/><path d="m59.1531 423.701c.9389 0 1.7-.761 1.7-1.7s-.7611-1.7-1.7-1.7-1.7.761-1.7 1.7.7611 1.7 1.7 1.7z"/><path d="m25.0525 371.5c.9389 0 1.7-.762 1.7-1.7 0-.939-.7611-1.7-1.7-1.7-.9388 0-1.7.761-1.7 1.7 0 .938.7612 1.7 1.7 1.7z"/><path d="m41.4529 345c.9389 0 1.7-.762 1.7-1.7 0-.939-.7611-1.7-1.7-1.7s-1.7.761-1.7 1.7c0 .938.7611 1.7 1.7 1.7z"/><path d="m48.8523 355.701c.9389 0 1.7-.761 1.7-1.7s-.7611-1.7-1.7-1.7c-.9388 0-1.7.761-1.7 1.7s.7612 1.7 1.7 1.7z"/><path d="m78.2527 389.9c.9389 0 1.7-.761 1.7-1.7s-.7611-1.7-1.7-1.7-1.7.761-1.7 1.7.7611 1.7 1.7 1.7z"/><path d="m86.6531 399.4c.9389 0 1.7-.761 1.7-1.7s-.7611-1.7-1.7-1.7-1.7.761-1.7 1.7.7611 1.7 1.7 1.7z"/><path d="m110.753 420.599c.939 0 1.7-.761 1.7-1.7s-.761-1.7-1.7-1.7-1.7.761-1.7 1.7.761 1.7 1.7 1.7z"/><path d="m121.153 428.201c.939 0 1.7-.761 1.7-1.7s-.761-1.7-1.7-1.7-1.7.761-1.7 1.7.761 1.7 1.7 1.7z"/><path d="m19.2527 385.4c.9389 0 1.7-.761 1.7-1.7s-.7611-1.7-1.7-1.7c-.9388 0-1.7.761-1.7 1.7s.7612 1.7 1.7 1.7z"/><path d="m30.6531 395.599c.9389 0 1.7-.761 1.7-1.7s-.7611-1.7-1.7-1.7-1.7.761-1.7 1.7.7611 1.7 1.7 1.7z"/><path d="m34.3523 383c.9389 0 1.7-.762 1.7-1.7 0-.939-.7611-1.7-1.7-1.7-.9388 0-1.7.761-1.7 1.7 0 .938.7612 1.7 1.7 1.7z"/><path d="m88.6531 431.3c.9389 0 1.7-.761 1.7-1.7 0-.938-.7611-1.7-1.7-1.7s-1.7.762-1.7 1.7c0 .939.7611 1.7 1.7 1.7z"/><path d="m88.6531 442.5c.9389 0 1.7-.762 1.7-1.7 0-.939-.7611-1.7-1.7-1.7s-1.7.761-1.7 1.7c0 .938.7611 1.7 1.7 1.7z"/><path d="m101.352 438.099c.939 0 1.7-.761 1.7-1.7s-.761-1.7-1.7-1.7-1.6997.761-1.6997 1.7.7607 1.7 1.6997 1.7z"/><path d="m77.9529 435.5c.9389 0 1.7-.762 1.7-1.7 0-.939-.7611-1.7-1.7-1.7-.9388 0-1.7.761-1.7 1.7 0 .938.7612 1.7 1.7 1.7z"/><path d="m134.352 270.8c.939 0 1.7-.761 1.7-1.7 0-.938-.761-1.7-1.7-1.7s-1.7.762-1.7 1.7c0 .939.761 1.7 1.7 1.7z"/><path d="m94.0525 299.9c.9389 0 1.7-.761 1.7-1.7s-.7611-1.7-1.7-1.7c-.9388 0-1.7.761-1.7 1.7s.7612 1.7 1.7 1.7z"/><path d="m101.852 310.099c.939 0 1.7-.761 1.7-1.7s-.761-1.7-1.7-1.7-1.7.761-1.7 1.7.761 1.7 1.7 1.7z"/><path d="m92.9529 317.099c.9389 0 1.7-.761 1.7-1.7s-.7611-1.7-1.7-1.7c-.9388 0-1.7.761-1.7 1.7s.7612 1.7 1.7 1.7z"/><path d="m84.6531 307.201c.9389 0 1.7-.761 1.7-1.7s-.7611-1.7-1.7-1.7-1.7.761-1.7 1.7.7611 1.7 1.7 1.7z"/></g><path d="m200.753 343.301c-6.2-4.1-11.2-7.7-15.5-10.9 4.4-12.3 6.3-21.1 6.4-21.1.053-.292-.012-.593-.181-.837s-.427-.41-.719-.463c-.292-.054-.593.011-.837.18-.243.169-.41.428-.463.72-1.643 6.834-3.645 13.577-6 20.2-8.5-6.6-14.3-12.4-22.5-20.9-.212-.213-.5-.332-.8-.332s-.588.119-.8.332c-.212.212-.332.499-.332.8 0 .3.12.587.332.8 8.4 8.8 14.4 14.7 23.3 21.6-.8 2.2-1.7 4.5-2.7 6.9-.11.279-.109.59.003.868.111.279.325.505.597.632.1 0 .3.1.4.1.217-.004.429-.072.607-.197.179-.125.315-.3.393-.503.9-2.2 1.7-4.3 2.4-6.3 4.2 3.2 9 6.6 15 10.6.182.11.387.179.6.2.18 0 .358-.045.515-.133.158-.087.29-.214.385-.367.5-.9.4-1.5-.1-1.9z" fill="#fece2f"/><path d="m160.953 199.6c-5.9 3.1-18.5 15.7-12.1 36 6.3 20.3 22.6 48.3 34.9 66.4s36 37.5 50.4 39.4 30.9-8 24.8-29.7c-5.2-18.4-34-59.5-34.2-60.1s-26.2-48.5-39-52.3c-12.8-3.6-16.4-4.1-24.8.3z" fill="#fece2f"/><path d="m160.453 200.301 7.7 15.4h-2.8l-7.9-13.9z" fill="#fff"/><path d="m178.053 239.1s27.6 53.5 47.8 67.2l.5-1.8s-10-12.2-26.6-36.8c-16.7-24.6-18.9-32.1-18.9-32.1z" fill="#fff"/><path d="m191.553 204.299s33.9 63.2 56.5 90.1l-.5-4.7-41.1-67s-12.7-20.2-14.9-18.4z" fill="#fff"/><path d="m205.353 324.499c-54.8-68.7-57.5-104-45.1-117.2 11.5-12.2 28.6-6.2 28.6-6.2-.969-.71-2.051-1.251-3.2-1.6-12.8-3.7-16.4-4.2-24.8.2-5.9 3.1-18.5 15.7-12.1 36 5.7 18.4 19.5 43 31.2 60.9 15.9 21 25.4 27.9 25.4 27.9z" fill="#fff"/><path d="m256.653 302.3c-4.6-9.5-49.3-80.8-55.8-90.6-6.3-9.3-12.7-14.1-21.3-16.1-3.985-.765-8.085-.698-12.043.197s-7.688 2.598-10.957 5.003c-6.3 4.9-9.9 12.5-10.3 21.9-.5 12.5 8.1 35.4 21.9 58.2 7.065 11.782 15.235 22.865 24.4 33.1v.5c.078.203.214.379.393.503.178.125.389.194.607.197 8.8 9.5 17.8 17.2 26.6 22.4 5.484 3.362 11.769 5.192 18.2 5.3 7.5 0 13.6-2.8 16.6-6.2 8.1-8.7 8.5-20 1.7-34.4zm-86.3-21.8c9.6-3.722 18.811-8.378 27.5-13.9 7 10.8 14.7 22 22.6 32.3-8.183 5.603-16.972 10.266-26.2 13.9-8.912-10.034-16.91-20.844-23.9-32.3zm29.5-15.1c7.722-4.994 14.866-10.83 21.3-17.4 6.7 10.7 13.8 22.2 19.7 31.9-5.187 6.782-11.394 12.719-18.4 17.6-7.9-10.2-15.6-21.4-22.6-32.1zm-20.9-67.5c8 1.8 14 6.3 19.9 15.1 3.1 4.5 11.5 17.9 21 33.1-6.46 6.542-13.601 12.375-21.3 17.4-5.4-8.4-10.3-16.4-14.6-23.5-.097-.222-.233-.425-.4-.6 2.658-2.186 4.576-5.139 5.492-8.455.916-3.317.785-6.836-.375-10.076-1.16-3.239-3.293-6.041-6.106-8.023-2.813-1.981-6.17-3.045-9.611-3.046-1.946-.026-3.879.313-5.7 1-3-5.5-5-9.3-5.7-10.6 3.826-1.892 8.033-2.884 12.3-2.9 1.713.071 3.418.272 5.1.6zm-30.5 25.1c.3-8.9 3.5-15.8 9.4-20.3.628-.491 1.297-.926 2-1.3.7 1.3 2.7 5.1 5.6 10.5-1.974 1.049-3.716 2.485-5.124 4.221-1.407 1.737-2.452 3.739-3.07 5.887-.619 2.148-.799 4.398-.53 6.617.269 2.22.981 4.362 2.094 6.3 1.114 1.939 2.605 3.633 4.387 4.984 1.781 1.35 3.816 2.328 5.983 2.876 2.168.548 4.423.655 6.632.314s4.327-1.123 6.228-2.299c.1.1.2.3.3.4 4.2 7.1 9.2 15.2 14.6 23.6-8.675 5.519-17.889 10.143-27.5 13.8-13.3-22-21.5-43.7-21-55.6zm104.9 112.4c-1.9 2.1-6.1 4.6-12.1 5.3-4.6.5-11.7 0-19.9-4.8-.1-.1-.2-.1-.3-.2l-2-7.6-1.2-4.2s-.4 6-4.9 6.3c-6.127-4.675-11.817-9.897-17-15.6 9.147-3.672 17.866-8.333 26-13.9 3.1 4 6.3 7.9 9.4 11.5.101.14.238.251.396.322.158.07.332.097.504.078.132.003.262-.022.383-.073.121-.052.229-.13.317-.227.114-.097.207-.216.274-.35.066-.134.106-.28.115-.429s-.011-.299-.061-.44-.127-.271-.228-.381c-3.1-3.6-6.2-7.4-9.3-11.3 6.925-4.866 13.092-10.729 18.3-17.4 1.3 2.1 2.5 4.1 3.6 6l-.3-.4s4.2 8.1-3.5 9.8l7.4 1.5 3.4 1.1c.8 1.5 1.4 2.6 1.8 3.3 6.7 13.6 6.3 23.8-1.1 32.1z" fill="#1a1a1a"/><path d="m165.653 237.401c-.434.006-.857-.135-1.2-.4-.378-.31-.621-.754-.677-1.239-.056-.486.079-.974.377-1.361l14.6-18.2c.149-.196.336-.36.549-.482.213-.123.449-.202.693-.232.244-.031.492-.012.729.054.237.067.458.18.651.332.192.153.353.343.471.559.119.215.193.452.219.697.026.244.003.492-.068.727-.071.236-.188.455-.344.645l-14.5 18.2c-.176.228-.404.411-.665.532-.261.122-.547.18-.835.168z" fill="#fece2f"/><path d="m233.853 145.501c-12.1 15.1-27.8 14.3-34.8 10.5s-22.7-21.8-10.1-55.7c12.3-33.0003 33.4-37.5003 45.1-34.1003 6.4 1.9 18.8 10.5 18.2 31.2" fill="#fece2f"/><path d="m242.453 94.2005c.1 2.7-1 5.6-3.4 6.7995-1.563.717-3.292.993-5 .801-1.682-.023-3.344-.362-4.9-1-.776-.321-1.477-.797-2.062-1.3992-.585-.6019-1.04-1.317-1.338-2.1013-.4-1.3-.3-2.7-.7-4-.9-2.7-4-4.6-4-7.5.2-5.2 9.7-9.3 13.9-6.9 4.1 2.4 7.3 11.1 7.5 15.3z" fill="#fee182"/><path d="m237.153 70.3992c2.004.5823 3.896 1.4948 5.6 2.7-2.007-2.5384-4.444-4.7046-7.2-6.4-.6-.2-1.1-.4-1.6-.6-11.6-3.4-32.7 1.1-45.1 34.0998-10 26.7-2.4 43.5 4.7 51.4-5.8-9-9.9-24.5-1.5-47.1 12.4-32.9998 33.5-37.4998 45.1-34.0998z" fill="#fff"/><path d="m249.512 124.77c5.419-12.458 6.773-23.879 3.025-25.5092-3.748-1.6299-11.179 7.1482-16.597 19.6072-5.418 12.458-6.772 23.879-3.024 25.509s11.178-7.148 16.596-19.607z" fill="#fff"/><path d="m215.174 106.002c2.886-7.3525 1.141-14.9157-3.897-16.8933s-11.462 2.3793-14.348 9.7314c-2.885 7.3519-1.141 14.9149 3.898 16.8929 5.038 1.978 11.461-2.379 14.347-9.731z" fill="#fff"/><path d="m209.496 103.772c1.069-2.725.394-5.5386-1.508-6.2852-1.902-.7467-4.311.8569-5.381 3.5812-1.069 2.725-.394 5.539 1.508 6.286 1.902.746 4.311-.857 5.381-3.582z" fill="#fece2f"/><path d="m256.253 79.1c-.679-.4248-1.446-.6904-2.243-.777-.796-.0865-1.602.0081-2.357.277-.637.2186-1.243.5212-1.8.9-.944-1.9227-2.048-3.7626-3.3-5.5-1.858-2.4031-4.086-4.4958-6.6-6.2.408-.733.615-1.5611.6-2.4-.024-1.1461-.431-2.2512-1.156-3.1392s-1.726-1.5078-2.844-1.7608c-.99-10.1586-3.909-20.035-8.6-29.1 1.21-.9691 2.088-2.2905 2.513-3.781.425-1.4906.376-3.0765-.14-4.538-.517-1.4614-1.475-2.7261-2.742-3.6185-1.267-.8925-2.781-1.3687-4.331-1.3625-1.346-.004-2.664.3778-3.8 1.1-.581-.7144-1.216-1.383-1.9-2-.7-.7-1.3-1.3-2-1.9.529-.9265.805-1.9757.8-3.0425s-.29-2.1136-.826-3.03548c-.537-.92184-1.307-1.68631-2.233-2.21673-.925-.53041-1.974-.80813-3.041-.80529-.826-.01467-1.646.14724-2.405.4749s-1.439.81352-1.995 1.4251c-1.665-.96823-3.404-1.80413-5.2-2.5v-.7c0-.96913-.287-1.91649-.826-2.72229-.538-.8058-1.304-1.433848-2.199-1.804718-.895-.37086891-1.88-.4679053-2.831-.2788377-.95.1890677-1.824.6557477-2.509 1.3410257-.685.68528-1.152 1.55837-1.341 2.50888s-.092 1.93573.279 2.83109.999 1.66063 1.805 2.19905c.805.53842 1.753.8258 2.722.8258.81-.00868 1.606-.21331 2.32-.5964.714-.3831 1.325-.93329 1.78-1.6036 1.609.67645 3.178 1.44437 4.7 2.3-.286.7321-.422 1.5143-.4 2.3.006 1.6159.651 3.1638 1.794 4.3064 1.142 1.1426 2.69 1.7873 4.306 1.7936 1.425.0104 2.807-.4858 3.9-1.4.6.6 1.3 1.2 1.9 1.9.5.6 1.1 1.1 1.6 1.8-1.235 1.3711-1.913 3.1546-1.9 5 .014 1.9847.809 3.884 2.213 5.2874 1.403 1.4034 3.302 2.1982 5.287 2.2126.923-.0021 1.838-.1715 2.7-.5 4.533 8.7162 7.351 18.2215 8.3 28-.845.2457-1.612.7066-2.226 1.3377-.613.631-1.052 1.4106-1.274 2.2623-6.863-.8153-13.801.6991-19.7 4.3-9.8 5.7-17.7 16.3-23.3 31.3-3.8 10.3-7.4 25.6-2.4 39.9 3.2 9.3 9 15.1 13 17.2 3.354 1.658 7.059 2.481 10.8 2.4 1.844-.022 3.683-.189 5.5-.5 5.2-1 12.8-4 19.7-12.4.2 0 .4-.1.6-.1.731-.22 1.436-.522 2.1-.9 1.095-.671 2.075-1.516 2.9-2.5 1.581-1.748 3.019-3.621 4.3-5.6 2.466-3.883 4.606-7.964 6.4-12.2 1.845-4.217 3.382-8.561 4.6-13 .61-2.258 1.012-4.568 1.2-6.9.131-1.269.063-2.551-.2-3.8-.096-.739-.334-1.4516-.7-2.1-.199-.4115-.47-.784-.8-1.1-.1-.2-.4-.3-.6-.5-.22-.1547-.455-.2886-.7-.4h-.1v-.1c.17-4.5953-.404-9.1879-1.7-13.6.397-.4665.917-.8128 1.5-1 .147-.0576.306-.0786.462-.0612.157.0174.307.0727.438.1612 1.3.8 1.1 3.9.8 5.2-.133.5835-.028 1.1957.291 1.7021.319.5063.826.8653 1.409.9979s1.196.028 1.702-.2908.865-.8257.998-1.4092c0-.6 1.3-7.2-3-9.8zm-66.3 21.5c5.3-14.3 13.1-24.7 22.3-30.1s17.2-4.4 20.8-3.5c-4.2 1.9-12.5 7.3-20.2 21.4-.3-.2-.7-.3-1-.5-2.8-1.1-6.1-.6-9.1 1.5-3.073 2.2536-5.433 5.3429-6.8 8.9-1.48 3.539-1.863 7.441-1.1 11.2.8 3.6 2.9 6.2 5.7 7.3l1.3.7c-6 21.5-4.6 32.3-3.2 36.8-7-4.4-20.6-21.8-8.7-53.7zm20.8-10.2c4.4 1.7 5.8 8.5 3.2 15.2s-8.3 10.7-12.6 9c-1.08-.513-2.018-1.283-2.733-2.241-.714-.959-1.184-2.078-1.367-3.259-.571-3.255-.228-6.604.99-9.6754 1.218-3.0717 3.264-5.7455 5.91-7.7246 1.367-1.0004 3.007-1.5587 4.7-1.6.649-.0976 1.313.0071 1.9.3zm5.6 16.1c2-5 1.9-10.2.1-13.8 3.5 1.7 4 7.5 1.3 14.3-1.221 3.284-3.25 6.207-5.9 8.5-2.2 1.8-4.4 2.4-6.2 1.7h-.1c4.5-1.2 8.6-5.2 10.8-10.7zm-14.8 49.4c-.1-.1-5.6-9 2.2-37.3l1 .6h.1c.765.294 1.581.431 2.4.4 2.26-.11 4.413-.993 6.1-2.5 2.937-2.545 5.203-5.773 6.6-9.4 3.3-8.4 2.1-15.4-2.9-17.4l-2.2-.9c10-18.4 21.3-21.2 21.4-21.2 3.386 1.6567 6.332 4.0893 8.6 7.1 1.307 1.7556 2.445 3.6305 3.4 5.6-1.882 2.2321-3.431 4.7246-4.6 7.4-.118.2684-.181.5579-.184.8511s.053.5841.165.855c.112.271.278.5164.487.7216.21.2052.459.3658.732.4723.292.0825.597.1163.9.1.45.002.89-.1302 1.264-.3795.374-.2494.665-.6047.836-1.0205.618-1.4255 1.354-2.7969 2.2-4.1.925 3.6243 1.329 7.3618 1.2 11.1-.205-.0158-.411.0185-.6.1-.784.0986-1.536.372-2.2.8-.603.3077-1.172.6762-1.7 1.1l-1.5 1.2c-1.758 1.653-3.365 3.46-4.8 5.4-2.741 3.801-5.055 7.892-6.9 12.2-1.849 4.279-3.256 8.735-4.2 13.3-.441 2.375-.675 4.784-.7 7.2-.017.635.017 1.27.1 1.9.095.674.228 1.342.4 2 .171.749.476 1.46.9 2.1.215.401.524.744.9 1 .175.167.378.302.6.4.1.1.3.1.4.2-10.4 12.1-23.1 12.7-30.4 10.1zm50.9-44.2c-.459 2.334-1.06 4.639-1.8 6.9.6-3 .4-5.2-.7-5.7-1.8-.8-5.5 3.5-8.2 9.7s-3.4 11.8-1.5 12.6c.9.4 2.1-.3 3.4-1.8-.5.8-1.1 1.6-1.7 2.4-1.246 1.758-2.689 3.369-4.3 4.8-.726.665-1.532 1.236-2.4 1.7-.356.161-.724.295-1.1.4-.082.044-.177.058-.268.04s-.173-.068-.232-.14c-.118-.119-.218-.254-.3-.4-.128-.324-.228-.659-.3-1-.087-.931-.12-1.866-.1-2.8.181-2.095.549-4.17 1.1-6.2 1.149-4.161 2.586-8.238 4.3-12.2 1.719-3.974 3.724-7.817 6-11.5 1.129-1.767 2.4-3.439 3.8-5 .649-.687 1.351-1.323 2.1-1.9.29-.184.591-.351.9-.5.128-.051.263-.084.4-.1.1 0 .2.1.4.3.21.297.347.64.4 1 .286.939.422 1.918.4 2.9.248 2.169.146 4.363-.3 6.5z" fill="#1a1a1a"/><path d="m234.165 92.4624c1.435-.5758 1.832-2.954.886-5.3118s-2.877-3.8024-4.312-3.2265-1.831 2.9541-.885 5.3118c.946 2.3578 2.876 3.8024 4.311 3.2265z" fill="#fff"/><path d="m354.253 343.4c-10.095-2.059-19.997-4.969-29.6-8.7-15.2-6-58.5-29.6-58.5-29.6s-20.6-11.6-35.4-3.2c-14.7 8.3-14.3 27-6.3 39.8s37.6 19.8 37.6 19.8 22.8 2.5 40.9 2.1c18.2-.4 44.7 1.4 50 3.5.1-.1-1.5-16.7 1.3-23.7z" fill="#fece2f"/><path d="m270.453 308.4s40.6 34.5 83.6 38.1l.3-3.1s-24-5.6-35.7-11.8c-11.8-6.3-48.2-23.2-48.2-23.2z" fill="#fff"/><path d="m239.353 347.699c-15.8-9.3-19.4-29-19.4-29l-.6.3c-1.1 7.6 1 15.9 5.2 22.7 8 12.8 37.6 19.8 37.6 19.8s22.8 2.5 40.9 2.1c2.7-.1 5.7-.1 8.7 0l.6-.4c-.1-.1-41.8 2.8-73-15.5z" fill="#fff"/><path d="m367.353 341.201 7-7.2.3-11.6v-11.4s2.9-2.1 4.2.8 4 11.6 4 11.6l4.7-9.3 8.4-21.5 4.1-8.7s4.9-.7 3.7 7.2c-1.2 7.8-7.2 23.3-7.2 23.3s1.9-.7 3.4 4.4c.904 3.422 1.175 6.98.8 10.5l.6 9.8-3.5 4.1s.3 5.4-.7 6.6-10.5 7.3-10.5 7.3c-.508-.818-.761-1.769-.725-2.731s.358-1.891.925-2.669c1.263-1.684 2.704-3.227 4.3-4.6l-1.5-7.8-4.6 4.8s-4.9 16.6-15.7 19.2l-.4-13.3z" fill="#fece2f"/><path d="m376.353 310.6s2 14 .9 20.3l-2.8 3.1s.9-19.4.3-23.1c-.1.1.7-1.4 1.6-.3z" fill="#fff"/><path d="m401.453 285.1s-7 26.2-15.4 40.5c-6.4 10.9-13.4 17.4-18 19l-.7-3.4s14.6-14.6 17.5-21.5c3-7 14.7-35.8 14.7-35.8z" fill="#fff"/><path d="m364.153 339.901c-1.6.1-3.4 2.5-3.4 2.5s-1.6-3.5-3.5-2.9-4 6.4-4.2 15.8c-.1 9.3.6 15.5 3.2 15.5s4.7-5.7 4.7-5.7 1.9 4.9 4.9 4.1 3.4-5.6 3.4-5.6l-.9-15.8c-.1 0-.4-8.2-4.2-7.9z" fill="#fff"/><path d="m403.452 284.9c-.909-1.158-2.238-1.913-3.7-2.1-.233-.012-.464.049-.661.175-.197.125-.35.309-.438.525-3.5 9.3-11.501 29-15.701 37.4-.5-1.9-1.3-4.7-2.2-7.6-.8-2.3-1.9-3.7-3.4-4.1-.635-.148-1.298-.134-1.927.041s-1.204.505-1.673.959c-.132.108-.238.246-.307.402-.07.157-.101.327-.093.498 0 .1 1.501 16.6-.299 22.8v.1c-2.4 2.6-4.601 4.9-5.701 6-.281-.381-.618-.718-1-1-.464-.314-.995-.514-1.552-.583-.556-.07-1.12-.007-1.647.183-.469.138-.905.368-1.283.677-.378.31-.69.691-.918 1.123-.231-.67-.691-1.236-1.299-1.6-.402-.284-.865-.468-1.352-.538-.487-.069-.984-.022-1.449.138-1.4.4-2.4 1.8-3 3.8-14.1-1.8-44-14.5-76.6-32.6-30.6-17-39.5-12.4-46-9-5.5 2.9-10.3 9.5-12.2 17-1.019 3.804-1.207 7.782-.551 11.664.656 3.883 2.14 7.579 4.351 10.836 10.4 15.5 32.3 24.1 61.5 24.1 38.2 0 64.2 1.4 68.1 3.6.118.08.26.115.4.1.253 1.136.766 2.198 1.5 3.1.266.331.601.601.98.791.38.19.796.295 1.221.309h.1c.407.002.812-.076 1.189-.23.378-.155.721-.382 1.01-.67 1.059-1.138 1.755-2.565 2-4.1.363.818.872 1.564 1.5 2.2.735.7 1.689 1.123 2.701 1.2h.299c2.2-.2 3.8-1.4 4.4-5.7 4.7-1.3 9.1-5.2 12.6-11.3 1.642-2.84 2.951-5.86 3.9-9l2.5-2.8.901 5.6c-3.2 2.6-4.9 5.2-5 7.5-.069 1.184.285 2.354 1 3.3.207.229.492.372.799.4.206.016.412-.018.601-.1 1.7-1 9.999-5.9 11.299-8.3.5-1 .6-3.1.5-5.2.2-.2 2.5-3.4 3.1-4.4.6-.9.3-4.6 0-6.9l.101-.1c1.7-3.5.599-15-2.301-18.2-.548-.62-1.286-1.042-2.099-1.2 3.128-7.229 5.475-14.772 7-22.5.4-2.9-.001-5.1-1.201-6.7zm-71 53.8c-1.879 3.948-3.127 8.166-3.7 12.5-16.374-2.276-32.554-5.786-48.4-10.5 2.9-12.8 8.4-19.5 10-21.2 13.666 7.178 27.721 13.588 42.1 19.2zm-56.2 23.1c-24.5-1.4-42.7-9.4-51.8-22.9-2.047-2.991-3.42-6.391-4.024-9.965-.605-3.574-.426-7.237.524-10.735.207-.851.474-1.687.8-2.5 1.948 1.551 3.985 2.987 6.1 4.3-.524 1.547-.794 3.168-.8 4.8 0 3.082.975 6.085 2.785 8.579s4.363 4.351 7.293 5.306c2.93.954 6.088.957 9.019.008 2.932-.949 5.489-2.802 7.303-5.293 6.6 2.8 14.7 5.9 24.3 8.9-1.283 6.416-1.786 12.964-1.5 19.5zm-21.7-30.4c1.745-3.416 2.071-7.384.907-11.039-1.165-3.656-3.724-6.704-7.124-8.483-3.399-1.778-7.362-2.143-11.029-1.016-3.667 1.128-6.741 3.657-8.554 7.038-3.2-2.1-5.3-3.7-6.1-4.3 2.2-4.8 5.7-8.9 9.4-10.9 6-3.2 14.3-7.5 43.9 9 4 2.2 8.1 4.4 12.5 6.7-2.2 2.5-7.3 9.3-10.2 21.7-9.4-3-17.3-6-23.7-8.7zm23.9 30.5c-.313-6.366.158-12.748 1.4-19 15.883 4.703 32.095 8.213 48.5 10.5-.424 3.149-.625 6.323-.6 9.5-15.2-.7-33.3-.8-43.7-.8-1.9-.1-3.7-.1-5.6-.2zm51.6 1c.025-3.109.225-6.214.601-9.3 6.7.9 13.799 1.7 21.199 2.3-.188 3.169-.088 6.349.301 9.5-3.6-1.2-12.101-1.9-22.101-2.5zm22.001-9.2c-7.4-.6-14.401-1.3-21.101-2.2.608-4.154 1.821-8.197 3.6-12 7.1 2.6 13.5 4.4 18.4 5-.503 3.044-.803 6.117-.899 9.2zm7.699 1.2c-.2 10.5-1.5 13.8-2.5 14.8-.089.103-.201.183-.327.235s-.262.074-.397.064c-.136-.01-.268-.051-.385-.12s-.217-.165-.291-.279c-1.5-1.6-2.099-7.4-1.699-14.7.3-5.1.9-13.7 3-14.4.149-.044.305-.058.46-.041.154.017.304.065.44.141 1.5 1.1 1.699 7.1 1.699 11zm5.2 13.5c-.458-.05-.884-.263-1.2-.6-.6-.6-2-2.4-1.9-6.9 0-1.8.1-3.8.1-5.8v-3c0-4.1.101-7.4.101-7.5v-.1s-.201-3.1 1.399-3.5c.226-.075.463-.109.701-.1.246.006.487.075.699.2 1.8 1.3 2.401 8.2 2.701 14.9.7 12.1-1.601 12.3-2.601 12.4zm11.701-56.9c.7.2 1.299 1.1 1.799 2.6 1.5 4.5 2.5 8.5 2.8 9.8-1.704 2.522-3.575 4.928-5.599 7.2.7-6.7-.001-16.7-.201-19.3.348-.249.777-.356 1.201-.3zm25.599-20.4c-1.608 7.86-4.02 15.534-7.199 22.9-1.97.347-3.824 1.171-5.4 2.4-.252.173-.426.438-.482.738s.009.61.181.862c.173.252.438.425.738.482.3.056.611-.009.862-.182 1.3-.9 5.4-3.1 7-1.4 1.3 1.4 2.2 5.6 2.5 9.3-.292-1.355-.835-2.644-1.6-3.8-2.9-4.1-10.6 0-11.5.5-.134.067-.254.161-.351.276s-.169.248-.213.392c-.043.144-.057.296-.039.445.017.149.065.294.14.424.076.13.177.243.298.333.121.089.259.153.405.187.147.034.299.038.447.011s.288-.084.413-.168c2.2-1.2 7.301-3.1 8.601-1.2 2.1 2.9 3.299 14 2.899 15.8-.3.4-.799 1.2-1.399 2 0-.4-.101-.8-.101-1.1-.2-1.8-.899-8-2.299-10.1-1.1-1.6-3.4-1.9-7.1-1-1.613.388-3.186.923-4.701 1.6-.137.059-.262.145-.367.252-.105.108-.187.235-.243.374s-.084.288-.082.438.033.298.092.436c.06.138.145.263.253.368.107.105.234.187.373.243.14.056.288.083.438.082.15-.002.299-.034.436-.093 3.7-1.6 8.3-2.6 9.1-1.4 1.6 2.4 2.8 15.8 1.9 17.7-.6 1.1-5 4.2-9.3 6.8-.05-.264-.05-.535 0-.8.1-1.3 1.001-3.4 4.701-6.3.146-.118.26-.272.33-.447.07-.176.094-.366.07-.553l-1.301-8.2 1.5-2.5c.125-.25.149-.538.068-.806-.08-.268-.26-.494-.502-.634-.242-.141-.528-.183-.8-.12s-.51.228-.666.46l-1.699 2.8-4.201 4.7c-.105.11-.175.25-.2.4 0 .1-4.599 15.3-14.199 18.7.111-2.233.078-4.471-.101-6.7-.3-6.7-.8-10.9-1.6-13.4 1.8-1.8 11.801-11.8 15.301-17.7 3.8-6.3 13.4-30.1 16.9-39.4.501.235.944.576 1.299 1 .6.9.8 2.5.4 4.6z" fill="#1a1a1a"/><path d="m246.153 335.5c-.334 0-.66-.094-.943-.271-.283-.176-.511-.429-.657-.729l-9.3-17.8c-.112-.216-.18-.453-.2-.696s.008-.487.082-.719c.074-.233.194-.448.351-.634.158-.186.35-.339.567-.451.217-.111.453-.179.696-.199.243-.021.487.007.72.081.232.075.447.194.633.352.186.157.339.35.451.566l9.3 17.7c.116.216.187.453.21.697.022.244-.005.49-.079.723-.075.233-.196.449-.356.635-.16.185-.355.337-.575.445-.276.162-.582.264-.9.3z" fill="#fece2f"/></g></svg></g><!--ITEM: Illustration component 7--><g transform="translate(1126.0 1114.0) rotate(0.0 318.0 83.0)  scale(2.192370138264098 2.1784491017178254)"><svg width="290.097" height="76.201" viewBox="0.0 0.0 290.097 76.201"><g fill="#333"><path d="m42.144 75.646c-.195 0-.393-.02-.591-.06-6.675-1.333-29.972-.413-38.386.054-.861.048-1.703-.277-2.307-.894-.605-.615-.915-1.462-.851-2.323l5.078-68.636c.099-1.343 1.082-2.456 2.402-2.72 11.6-2.327 38.306-.142 39.438-.048 1.651.137 2.878 1.587 2.741 3.238s-1.592 2.869-3.238 2.741c-.252-.022-23.711-1.94-35.534-.408l-4.653 62.888c8.326-.392 29.354-1.201 36.485.226 1.625.324 2.679 1.905 2.354 3.529-.285 1.426-1.538 2.413-2.938 2.413z"/><path d="m24.842 40.824c-.199 0-.401-.021-.604-.062-3.497-.717-14.515-.204-18.465.054-1.659.125-3.081-1.145-3.189-2.798s1.145-3.081 2.798-3.189c1.536-.101 15.146-.95 20.058.055 1.623.332 2.67 1.917 2.338 3.54-.291 1.421-1.541 2.4-2.936 2.4z"/><path d="m92.385 39.291c-.142 0-.284-.01-.428-.03-11.247-1.606-17.791-.072-17.855-.057-1.606.392-3.23-.593-3.625-2.198s.577-3.225 2.18-3.626c.305-.076 7.624-1.849 20.148-.059 1.64.234 2.78 1.754 2.545 3.394-.213 1.496-1.496 2.576-2.965 2.576z"/><path d="m101.416 49.644c-.196 0-.395-.02-.595-.06-16.932-3.403-26.633-1.175-26.729-1.15-1.61.38-3.228-.604-3.617-2.211-.389-1.605.589-3.224 2.194-3.618.438-.108 10.948-2.599 29.335 1.097 1.625.327 2.676 1.908 2.35 3.532-.287 1.424-1.539 2.41-2.938 2.41z"/><path d="m131.708 73.352c-.116 0-.234-.007-.352-.021-1.646-.192-2.824-1.682-2.631-3.328l4.676-40.009c.192-1.646 1.68-2.831 3.328-2.631 1.646.192 2.824 1.682 2.631 3.328l-4.676 40.01c-.179 1.527-1.475 2.651-2.976 2.651z"/><path d="m157.227 73.352c-.28 0-.564-.039-.847-.122-1.59-.467-2.5-2.134-2.034-3.724.023-.079 2.33-8.015 3.004-16.677.574-7.364.101-16.789-5.413-19.868-6.271-3.504-14.011 7.739-14.087 7.854-.918 1.377-2.78 1.753-4.158.835-1.378-.916-1.755-2.774-.84-4.154 3.965-5.982 13.063-14.771 22.012-9.773 6.668 3.725 9.516 12.359 8.462 25.666-.733 9.271-3.12 17.465-3.222 17.81-.385 1.306-1.582 2.153-2.877 2.153z"/><path d="m185.034 76.201c-.141 0-.283-.01-.427-.03-1.64-.233-2.78-1.753-2.547-3.393 1.274-8.977 2.638-35.531-7.479-39.659-8.238-3.365-13.334 4.448-13.547 4.783-.889 1.396-2.745 1.81-4.142.919-1.397-.89-1.81-2.745-.919-4.142 2.733-4.292 10.613-11.303 20.875-7.116 7.218 2.946 11.251 11.79 11.987 26.287.516 10.144-.78 19.386-.836 19.774-.212 1.497-1.496 2.577-2.965 2.577z"/><path d="m223.378 74.436c-2.922.001-5.685-.776-8.159-2.36-7.636-4.887-10.271-15.871-6.561-27.334 5.162-15.94 13.432-19.615 17.901-20.387 4.563-.791 9.002.806 11.58 4.16 1.01 1.314.763 3.197-.551 4.207-1.314 1.009-3.198.762-4.207-.551-1.215-1.582-3.435-2.313-5.802-1.903-2.524.436-8.866 2.899-13.213 16.322-2.814 8.69-1.134 17.092 4.086 20.433 4.761 3.047 11.39 1.199 18.181-5.069 1.219-1.125 3.116-1.048 4.239.169 1.124 1.218 1.048 3.116-.169 4.239-5.762 5.318-11.825 8.074-17.325 8.074z"/><path d="m267.173 32.377c-2.732 0-5.081-.385-6.533-1.394-1.327-.921-2.055-2.286-2.048-3.843.018-3.736 3.495-5.785 6.858-7.766 3.687-2.172 6.307-3.894 6.429-6.28.079-1.541-.549-2.542-1.089-3.11-.669-.704-1.563-1.125-2.394-1.125-.941 0-1.187.292-1.279.402-.613.73-.673 2.648-.48 3.753.284 1.626-.798 3.184-2.422 3.477-1.619.297-3.178-.773-3.479-2.397-.102-.547-.915-5.44 1.765-8.664.976-1.172 2.79-2.57 5.896-2.57 2.479 0 4.938 1.09 6.743 2.991 1.908 2.007 2.878 4.689 2.731 7.55-.297 5.795-5.545 8.886-9.376 11.143-.886.522-2.049 1.207-2.888 1.812 4.026.271 13.966-1.081 20.429-3.523 1.556-.587 3.281.197 3.867 1.747.585 1.55-.196 3.281-1.746 3.867-1.537.581-12.926 3.929-20.984 3.93z"/></g></svg></g></svg>